<svg xmlns="http://www.w3.org/2000/svg" viewBox="0 0 90 20">
  <defs/>
  <path fill="inherit" fill-rule="nonzero" d="M83.897 3.895c4.09 0 6.107 2.754 6.106 6.319 0 4.814-3.398 8.813-7.901 8.813-4.035 0-6.107-2.754-6.107-6.348 0-4.783 3.425-8.784 7.902-8.784zm-62.464.196c4.036 0 6.027 2.718 6.027 6.239 0 4.75-3.354 8.697-7.8 8.697-3.982 0-6.028-2.719-6.028-6.265 0-4.722 3.383-8.671 7.801-8.671zm26.427.515c2.699 0 2.89 2.204 2.536 4.635l-1.645 9.786h-4.678l1.224-8.583c.109-.859.136-1.488-.545-1.488-1.173 0-2.701 2.26-3.055 4.178l-.436 2.945c-.137 1.03-.301 2.204-.328 2.947h-5.127c.273-1.228.545-3.175.791-4.863l.491-3.319c.191-1.23.219-1.888-.464-1.888-1.173 0-2.699 2.26-3.055 4.178l-.436 2.945c-.136 1.03-.328 2.204-.355 2.947h-5.072c.272-1.228.545-3.175.79-4.863l.628-4.292c.245-1.631.326-3.348.272-4.663 1.909-.057 3.272-.201 4.827-.459.109.459.191 2.604-.191 4.492 1.501-2.89 3.682-4.635 5.701-4.635 2.672 0 2.863 2.146 2.536 4.436 1.5-2.776 3.627-4.436 5.591-4.436zm16.911 2.96c.09.733.102 1.51.007 2.215-.483 3.409-.792 5.972-.927 7.691-.021.266-.02.724.006 1.372l-4.667-.005c.1-.269.188-.632.268-1.09a9.93 9.93 0 00.113-1.139c-.987 1.353-2.342 2.156-4.032 2.364-2.423.299-4.02-.662-4.498-2.853-.303-1.376.116-2.943.846-3.879.978-1.224 2.571-2.01 4.515-2.248a12.947 12.947 0 014.115.137l.051-.212c.035-.338.071-.676.021-1.081-.126-1.037-.944-1.654-2.966-1.406-1.361.167-2.659.659-3.666 1.22l-.977-2.959c1.363-.783 3.083-1.379 5.051-1.621 3.762-.462 6.401.739 6.74 3.494zM13.714 4.864l-.082 2.603-6.791 7.383h.748c2.41-.006 3.983-.034 4.924-.087-.299 1.402-.544 2.548-.79 4.263-1.364-.113-3.492-.142-5.619-.142-2.373 0-4.445.028-6.109.142l.054-2.632L6.84 9.041c-2.973 0-4.064.027-5.291.057.272-1.316.464-2.775.654-4.234 1.95.077 2.827.109 5.057.114l.752.001c2.592 0 4.066-.029 5.702-.115zM73.559 0l-.601 4.435h3.245c-.097.41-.413 2.468-.557 3.45l-.043.298H72.44l-.709 5.236c-.19 1.345-.083 1.831.846 1.831.682 0 1.691-.399 2.318-.714l-.545 3.374c-.846.46-2.427 1.116-4.254 1.116-3.109 0-3.737-1.659-3.245-5.179l.788-5.665h-1.527l.433-3.667 1.67-.08.627-2.661L73.559 0zM57.394 12.232c-.984.121-1.805.53-2.244 1.122-.333.427-.5.935-.426 1.541.111.911 1.116 1.606 2.279 1.462 1.715-.211 2.897-1.866 3.181-3.518l.048-.442c-.737-.165-1.804-.292-2.838-.165zm-36.48-4.325c-1.309 0-2.372 2.088-2.372 4.692 0 1.746.572 2.631 1.553 2.631 1.309 0 2.346-2.117 2.346-4.691 0-1.774-.572-2.632-1.527-2.632zm62.362-.015c-1.309 0-2.372 2.088-2.372 4.692 0 1.747.573 2.632 1.555 2.632 1.309 0 2.347-2.117 2.346-4.691 0-1.774-.573-2.633-1.529-2.633z"/>
</svg>
