<svg xmlns="http://www.w3.org/2000/svg" viewBox="0 0 102 22">
  <defs/>
  <g fill="none" fill-rule="evenodd">
    <path fill="#204397" d="M93.114 12.297c0 .286.024.548.072.81.313 1.19 1.346 2.049 2.618 2.049 1.873 0 2.977-1.55 2.977-3.836 0-2.05-1.008-3.717-2.905-3.717-1.225 0-2.353.882-2.665 2.169a3.84 3.84 0 00-.097.738v1.787zm-2.953-2.884c0-1.524-.048-2.763-.096-3.86h2.593l.145 1.788h.048c.864-1.31 2.233-2.05 4.01-2.05 2.69 0 4.923 2.288 4.923 5.91 0 4.193-2.665 6.218-5.331 6.218-1.465 0-2.69-.62-3.291-1.548h-.048v6.003h-2.953V9.414zm-5.643 7.744h2.954V5.554h-2.954v11.603zm1.465-13.27c-.985 0-1.634-.715-1.634-1.573 0-.906.674-1.597 1.658-1.597 1.008 0 1.632.691 1.657 1.597 0 .858-.649 1.572-1.657 1.572h-.024zm-9.437 5.408c0-1.573-.024-2.717-.096-3.741h2.545l.12 2.192h.072c.576-1.62 1.945-2.454 3.218-2.454.288 0 .456.024.697.072v2.74a4.802 4.802 0 00-.89-.072c-1.392 0-2.377.881-2.64 2.215a5.14 5.14 0 00-.072.882v6.028h-2.954V9.295zm-4.467-6.719v2.978h2.81v2.192h-2.81v5.099c0 1.429.385 2.143 1.513 2.143.529 0 .817-.024 1.153-.118l.048 2.215c-.431.167-1.225.31-2.138.31-1.104 0-1.992-.358-2.544-.953-.65-.667-.937-1.74-.937-3.265v-5.43h-1.657V5.553h1.657V3.386l2.905-.81zM60.073 9.295c0-1.573-.024-2.717-.097-3.741h2.547l.12 2.192h.07c.577-1.62 1.946-2.454 3.22-2.454.287 0 .455.024.696.072v2.74a4.791 4.791 0 00-.889-.072c-1.393 0-2.378.881-2.642 2.215a5.05 5.05 0 00-.071.882v6.028h-2.954V9.295zm-5.45 2.192c-2.09-.024-4.083.404-4.083 2.168 0 1.143.744 1.667 1.681 1.667 1.2 0 2.041-.763 2.328-1.597.073-.214.073-.428.073-.642v-1.596zm2.88 2.882c0 1.049.048 2.073.192 2.788H55.03l-.216-1.286h-.072c-.697.904-1.921 1.548-3.458 1.548-2.353 0-3.674-1.692-3.674-3.455 0-2.906 2.617-4.407 6.94-4.384v-.19c0-.763-.312-2.026-2.377-2.026-1.153 0-2.354.358-3.146.859l-.576-1.907c.864-.524 2.376-1.024 4.226-1.024 3.746 0 4.827 2.359 4.827 4.908v4.17zM43.72 10.128c.025-1.072-.456-2.835-2.425-2.835-1.825 0-2.593 1.644-2.713 2.835h5.138zm-5.138 2.049c.072 2.097 1.729 3.003 3.602 3.003 1.369 0 2.33-.216 3.242-.525l.431 2.002c-1.008.428-2.4.738-4.081.738-3.794 0-6.028-2.31-6.028-5.86 0-3.218 1.97-6.243 5.716-6.243 3.794 0 5.042 3.097 5.042 5.647 0 .548-.048.976-.096 1.238h-7.828zm-7.805 4.98h2.954V.217h-2.954v16.94zm-1.68-.358c-.625.286-1.85.596-3.315.596-3.65 0-6.027-2.335-6.027-5.932 0-3.478 2.402-6.171 6.508-6.171 1.08 0 2.185.238 2.857.524l-.528 2.216c-.48-.239-1.176-.453-2.233-.453-2.258 0-3.602 1.644-3.578 3.765 0 2.381 1.56 3.74 3.578 3.74a5.91 5.91 0 002.33-.452l.408 2.167z"/>
    <path fill="#F26822" d="M16.94 15.069c0 1.163-.73 2.106-1.63 2.106H1.63c-.9 0-1.63-.943-1.63-2.106V2.34C0 1.178.73.235 1.63.235H15.31c.9 0 1.629.943 1.629 2.106V15.07zM2.364 9.242l1.545-2.455 2.165 3.682 6.956-5.828 1.545 2.607-8.81 5.52-3.401-3.526z"/>
  </g>
</svg>
