<svg width="167" height="33" viewBox="0 0 167 33" xmlns="http://www.w3.org/2000/svg" xmlns:xlink="http://www.w3.org/1999/xlink"><title>Aldoshik Logo</title><defs><path id="a" d="M0 .138h166.907v31.97H0"/><path id="c" d="M0 .138h166.907v31.97H0"/><path id="e" d="M0 .138h166.907v31.97H0V.138z"/></defs><g fill="none" fill-rule="evenodd"><path d="M12.207 27.048a7.3 7.3 0 0 0 2.8-.547 7.1 7.1 0 0 0 2.32-1.516 7.407 7.407 0 0 0 1.565-2.263c.385-.862.58-1.807.58-2.835 0-.928-.195-1.832-.58-2.71a7.114 7.114 0 0 0-1.59-2.29 8.237 8.237 0 0 0-2.32-1.566 6.62 6.62 0 0 0-2.775-.597c-.975 0-1.89.19-2.75.57a7.717 7.717 0 0 0-2.294 1.567 7.47 7.47 0 0 0-1.59 2.29 6.59 6.59 0 0 0-.58 2.735c0 .995.203 1.924.607 2.785a7.31 7.31 0 0 0 1.638 2.264 8.3 8.3 0 0 0 2.322 1.542c.856.382 1.74.572 2.647.572m1.464-19.15c1.513.166 2.934.596 4.264 1.292a12.024 12.024 0 0 1 3.43 2.66 12.603 12.603 0 0 1 2.27 3.683 11.52 11.52 0 0 1 .83 4.352v9.6c0 .664-.25 1.236-.754 1.716-.505.482-1.078.722-1.717.722-.235 0-.495-.016-.78-.05a2.225 2.225 0 0 1-.832-.273 2.522 2.522 0 0 1-.732-.622c-.22-.266-.344-.63-.378-1.095-.17.066-.472.216-.91.447-.436.233-.755.398-.957.498-.37.166-.756.316-1.16.448-.403.132-.825.266-1.262.397-.84.167-1.748.25-2.723.25-2.52 0-4.776-.672-6.758-2.016-1.986-1.34-3.465-3.075-4.44-5.198-.337-.73-.598-1.5-.782-2.313A11.27 11.27 0 0 1 0 19.885c0-.86.093-1.69.278-2.488.184-.795.445-1.574.78-2.336A12.24 12.24 0 0 1 5.5 9.84c1.983-1.327 4.238-1.99 6.76-1.99h.706c.202 0 .437.017.707.05M54.433 19.885c0-.895-.193-1.774-.58-2.636a7.82 7.82 0 0 0-1.588-2.314 7.767 7.767 0 0 0-2.32-1.616 6.62 6.62 0 0 0-2.776-.597 7.04 7.04 0 0 0-2.8.57 7.453 7.453 0 0 0-2.322 1.543 7.344 7.344 0 0 0-1.563 2.288c-.387.88-.58 1.8-.58 2.76 0 .996.193 1.925.58 2.785a7.405 7.405 0 0 0 1.563 2.264 7.44 7.44 0 0 0 2.32 1.542 7.04 7.04 0 0 0 2.8.572c.976 0 1.9-.19 2.776-.572a7.86 7.86 0 0 0 2.32-1.542c.673-.647 1.202-1.4 1.59-2.265.386-.86.58-1.79.58-2.785zM57.057.188c.57-.034 1.108.192 1.614.67.505.483.758 1.004.758 1.568v17.46a10.92 10.92 0 0 1-1.01 4.625 12.462 12.462 0 0 1-2.724 3.83 13.49 13.49 0 0 1-3.91 2.612c-1.462.647-3 .97-4.615.97-1.648 0-3.212-.314-4.693-.944a12.384 12.384 0 0 1-3.883-2.587 12.543 12.543 0 0 1-2.65-3.83 11.28 11.28 0 0 1-.983-4.675c0-1.79.295-3.366.884-4.726.588-1.36 1.47-2.636 2.648-3.83v.05c1.244-1.16 2.615-2.04 4.11-2.637a12.337 12.337 0 0 1 4.617-.896c.94 0 2.058.15 3.353.448 1.295.3 2.58.88 3.86 1.74v-7.36c0-.33.067-.646.2-.945.136-.298.312-.572.532-.82.22-.25.48-.44.782-.573.302-.13.605-.183.908-.15h.202zM88.7 14.96c0-.926.184-1.823.556-2.685a7.452 7.452 0 0 1 3.757-3.88 7.162 7.162 0 0 1 2.8-.647h9.736c.672 0 1.235.257 1.69.77.453.515.68 1.054.68 1.618 0 .663-.244 1.236-.733 1.715-.486.483-1.033.723-1.638.723h-9.434c-.808 0-1.422.232-1.842.697-.42.464-.63 1.028-.63 1.69 0 .63.21 1.195.63 1.69.42.5 1.034.747 1.842.747h6.203c.975 0 1.882.2 2.724.597.84.4 1.565.93 2.17 1.593a7.578 7.578 0 0 1 1.437 2.312c.353.88.53 1.782.53 2.71 0 1.062-.184 2.04-.554 2.935a6.586 6.586 0 0 1-1.59 2.312 7.528 7.528 0 0 1-2.42 1.518c-.927.365-1.943.547-3.054.547h-9.33c-.673 0-1.22-.23-1.64-.697-.42-.463-.63-1.026-.63-1.69 0-.63.226-1.202.68-1.716a2.325 2.325 0 0 1 1.69-.822h9.23c.81 0 1.44-.206 1.894-.622.453-.414.68-1.003.68-1.766 0-.828-.227-1.424-.68-1.79-.455-.364-1.084-.547-1.894-.547H95.51a6.23 6.23 0 0 1-2.65-.573 6.964 6.964 0 0 1-2.168-1.566 7.306 7.306 0 0 1-1.463-2.338 7.69 7.69 0 0 1-.53-2.835" fill="#FFF"/><g><mask id="b" fill="#fff"><use xlink:href="#a"/></mask><path d="M114.4.138c.604 0 1.14.232 1.614.697.47.464.757 1.044.856 1.74v7.76c1.412-.896 2.75-1.517 4.012-1.865 1.26-.35 2.362-.523 3.302-.523 1.648 0 3.212.298 4.693.896a12.14 12.14 0 0 1 3.884 2.486 12.102 12.102 0 0 1 2.65 3.73c.654 1.427.982 2.95.982 4.576v9.9c0 .663-.243 1.234-.73 1.715a2.65 2.65 0 0 1-1.79.773 2.25 2.25 0 0 1-1.642-.673 2.88 2.88 0 0 1-.83-1.667v-9.698c0-.96-.186-1.873-.556-2.736a7.598 7.598 0 0 0-1.513-2.29 6.95 6.95 0 0 0-2.295-1.566 7.182 7.182 0 0 0-2.85-.572c-.976 0-1.876.174-2.698.522a7.48 7.48 0 0 0-2.22 1.443 7.693 7.693 0 0 0-2.397 4.85v9.897c0 .664-.236 1.235-.705 1.716-.473.48-1.078.74-1.817.773-.572 0-1.076-.232-1.512-.698a3.734 3.734 0 0 1-.908-1.69V2.327c.134-.564.41-1.07.83-1.517.42-.448.968-.672 1.64-.672" fill="#FFF" mask="url(#b)"/></g><g><mask id="d" fill="#fff"><use xlink:href="#c"/></mask><path d="M141.743 31.922c-.74 0-1.37-.25-1.89-.746-.523-.496-.784-1.127-.784-1.89V10.584c0-.73.26-1.343.783-1.84.52-.5 1.15-.747 1.89-.747.672 0 1.27.248 1.792.746.52.498.78 1.112.78 1.84v18.703c0 .763-.26 1.394-.78 1.89-.523.497-1.12.746-1.792.746m2.573-29.197c0 .73-.253 1.352-.757 1.865-.505.513-1.11.77-1.817.77-.74 0-1.37-.257-1.89-.77a2.518 2.518 0 0 1-.784-1.865c0-.696.26-1.3.783-1.816a2.594 2.594 0 0 1 1.89-.773c.707 0 1.312.26 1.816.772.503.514.756 1.12.756 1.815" fill="#FFF" mask="url(#d)"/></g><path d="M29.813 31.94c-.74 0-1.37-.25-1.89-.746-.523-.497-.784-1.126-.784-1.89V2.855c0-.73.26-1.343.782-1.84.52-.5 1.15-.746 1.89-.746.674 0 1.27.247 1.792.747.522.496.782 1.11.782 1.84v26.45c0 .763-.26 1.392-.782 1.89-.522.496-1.118.745-1.79.745" fill="#FFF"/><g><mask id="f" fill="#fff"><use xlink:href="#e"/></mask><path d="M166.2 27.594c.202.266.37.556.505.872.134.314.203.62.203.92 0 .332-.052.655-.152.97-.1.316-.287.605-.555.87v-.05c-.605.53-1.244.796-1.917.796-.672 0-1.26-.248-1.764-.747l-10.14-9.997v8.157c0 .664-.262 1.253-.783 1.767-.52.513-1.135.77-1.842.77-.672 0-1.277-.25-1.815-.746s-.806-1.094-.806-1.79V2.675c0-.664.258-1.252.78-1.767.523-.515 1.135-.772 1.84-.772.74 0 1.364.25 1.868.746a2.42 2.42 0 0 1 .757 1.79v15.52l10.14-9.998c.47-.464 1.058-.697 1.763-.697.338 0 .673.058 1.01.173.336.117.638.308.908.572v-.05c.27.267.455.556.556.872.1.315.152.638.152.97 0 .73-.236 1.326-.707 1.79l-8.02 7.91 8.02 7.857z" fill="#FFF" mask="url(#f)"/></g><path d="M73.336 18.835c-.236-1.198-.657-2.508-1.396-3.238-.65-.64-1.26-.923-1.8-1.006a1.62 1.62 0 0 0-1.327.407c-.316.28-.507.595-.595.9-.09.334-.066.692.05 1.034.094.277.238.528.42.75.203.248.46.314.75.498.77.493 1.53.56 2.334.56h.718c.275 0 .555.123.846.097" fill="#FFF"/><path d="M66.163 17.475c-.25-.737-.296-1.45-.08-2.22.193-.698.597-1.328 1.252-1.905.837-.738 1.927-1.088 3.136-.908.987.147 1.917.676 2.926 1.672.023.022-.05.056-.05.08V7.83c-1.396.132-3.37.644-5.05 1.538-1.968 1.05-3.446 2.396-4.545 4.348-.938 1.665-1.416 3.647-1.554 5.024h4.76c-.34 0-.612-.734-.793-1.265M80.34 17.682c.18-.22.324-.47.42-.746.113-.342.14-.695.045-1.028-.084-.306-.274-.612-.592-.892a1.613 1.613 0 0 0-1.326-.386c-.54.082-1.15.405-1.8 1.044-.74.73-1.16 1.963-1.396 3.16.29.027.572-.094.847-.094h.718c.804 0 1.564-.068 2.335-.56.286-.185.544-.25.75-.498" fill="#FFF"/><path d="M75.625 14.123c1.01-.995 2-1.515 2.987-1.662 1.21-.18 2.272.19 3.108.928a4.003 4.003 0 0 1 1.24 1.946c.214.77.16 1.403-.09 2.14-.18.532-.46 1.265-.8 1.265h4.76c-.14-1.377-.686-3.358-1.636-5.025-1.115-1.95-2.547-3.373-4.516-4.424-1.668-.887-3.61-1.32-5.006-1.457v6.358c0-.02-.07-.045-.047-.067M76.925 21.033l3.696 5.96-1.718-.932.118 1.9-3.348-5.667v9.814c1.395-.136 3.435-.657 5.107-1.57 1.964-1.068 3.43-2.498 4.516-4.43.928-1.65 1.4-3.24 1.535-5.074h-9.905zM69.952 28.096l.064-1.918-1.69.97 3.82-6.115h-9.95c.133 1.835.662 3.425 1.59 5.075 1.084 1.93 2.49 3.396 4.456 4.466 1.68.915 3.708 1.402 5.104 1.534v-9.742l-3.394 5.73z" fill="#FFF"/></g></svg>