<svg version="1" xmlns="http://www.w3.org/2000/svg" width="346.667" height="346.667" viewBox="0 0 260.000000 260.000000"><path d="M0 130v130h260V0H0v130zm139.4-81c18.7 2.7 27.6 12.9 29.7 33.9.6 5.4.9 12 .7 14.7l-.3 4.9-11.7.3-11.8.3v-9.9c0-14.4-2.1-19.3-8.9-21.2-5.3-1.4-10.7.3-13.2 4.3-1.9 3.1-1.9 5-1.7 52.4l.3 49.3 2.7 2.7c2.3 2.2 3.6 2.7 8.2 2.7 4.4.1 5.9-.4 8-2.3 3.8-3.6 4.6-7.9 4.6-24.9V141h-11v-23l17.3.2 17.2.3.3 22.5c.5 37-1.7 48-11.1 57.1-6.3 6-13.2 8.3-25.2 8.3-5.5 0-11.8-.5-14.1-1.2-6.1-1.8-12.9-6.8-16.4-12-5.9-9-6-9.6-6-65.3 0-48 .1-51 2-57.2 4.2-13.6 14.4-20.7 32.5-22.6.6 0 4.1.4 7.9.9z"/></svg>