<svg version="1" xmlns="http://www.w3.org/2000/svg" width="346.667" height="346.667" viewBox="0 0 260.000000 260.000000"><path d="M113.1 1C57.5 8.8 14.4 49.3 2.4 105.1c-2.6 11.8-2.6 38 0 49.8 5.9 27.3 16.7 47.4 36 66.7 19.3 19.3 39.4 30.1 66.7 36 11.8 2.6 38 2.6 49.8 0 27.3-5.9 47.4-16.7 66.7-36 19.3-19.3 30.1-39.4 36-66.7 1.4-6.2 1.8-12.7 1.8-24.9s-.4-18.7-1.8-24.9c-5.9-27.3-16.7-47.4-36-66.7-19-18.9-38.4-29.6-64.6-35.5C147.1.6 123-.4 113.1 1zM152 55.1c15.1 3.8 28.6 12.5 38.7 24.9 5.6 6.9 6.6 10.5 3.6 13.2-4.1 3.7-25.8 16.8-27.7 16.8-1.3 0-4.8-2.6-8.4-6.1-4-3.8-8.8-7.2-13-9.2-17.5-8.2-38.4-.2-47.4 18.1-3 6-3.3 7.5-3.3 15.7 0 8 .3 9.7 3.1 15.5 3.8 8.1 10 14.3 18 18.1 7.5 3.6 14.1 4.5 21.9 2.9 9.8-2 19.5-8.4 19.5-12.9 0-.7-4.4-1.1-13.5-1.1-18.1 0-17.5.6-17.5-17.9 0-13.3.1-14.1 2.2-15.5 1.9-1.4 7.3-1.6 38-1.6 44.1 0 40.3-1.7 39.6 17.4-.4 10.9-1 14.5-3.3 21.5-7.1 21-25.4 38.8-47 45.7-12.2 3.9-22.8 5-34 3.6-27.2-3.4-49.2-18.8-61.1-42.7-6-12.1-7.7-20.7-7.1-36C54 104.7 60 91.1 75 75.9c16.8-17 36.5-24.6 60.5-23.2 5 .3 12.4 1.4 16.5 2.4z"/></svg>