<?xml version="1.0" encoding="UTF-8" standalone="no"?>
<svg width="167px" height="33px" viewBox="0 0 167 33" version="1.1" xmlns="http://www.w3.org/2000/svg" xmlns:xlink="http://www.w3.org/1999/xlink" xmlns:sketch="http://www.bohemiancoding.com/sketch/ns">
    <!-- Generator: Sketch 3.4 (15575) - http://www.bohemiancoding.com/sketch -->
    <title>Aldoshik Logo</title>
    <desc>Created with Sketch.</desc>
    <defs>
        <path id="path-1" d="M0,0.137606178 L166.907429,0.137606178 L166.907429,32.1081081 L0,32.1081081"></path>
        <path id="path-3" d="M0,0.137606178 L166.907429,0.137606178 L166.907429,32.1081081 L0,32.1081081"></path>
        <path id="path-5" d="M0,0.137606178 L166.907429,0.137606178 L166.907429,32.1081081 L0,32.1081081 L0,0.137606178 Z"></path>
    </defs>
    <g id="Final" stroke="none" stroke-width="1" fill="none" fill-rule="evenodd" sketch:type="MSPage">
        <g id="Home" sketch:type="MSArtboardGroup" transform="translate(-72.000000, -1873.000000)">
            <g id="Aldoshik" sketch:type="MSLayerGroup" transform="translate(-1.000000, 1801.000000)">
                <g id="Details-Copy" transform="translate(72.000000, 72.000000)">
                    <g id="I-spent-almost-two-y-+-See-More-+-Rectangle-28-+-Fill-163-+-Page-1">
                        <g id="Aldoshik-Logo" transform="translate(1.000000, 0.000000)">
                            <path d="M12.2073744,27.0477785 C13.1833242,27.0477785 14.1164774,26.8661384 15.006834,26.5005646 C15.8981209,26.1359083 16.6712518,25.6304349 17.3280875,24.9836859 C17.9839928,24.3369368 18.5045304,23.5823963 18.891561,22.7205229 C19.2767309,21.8581909 19.472107,20.9128364 19.472107,19.885377 C19.472107,18.956994 19.2767309,18.0533801 18.891561,17.1745353 C18.5045304,16.2956905 17.9746891,15.5328936 17.3015721,14.8861446 C16.6293855,14.2393955 15.8562546,13.7174094 14.981249,13.3192689 C14.1062435,12.921587 13.1833242,12.7229754 12.2073744,12.7229754 C11.2323549,12.7229754 10.3168786,12.912872 9.45815432,13.2944998 C8.60036045,13.6761276 7.83560279,14.1981137 7.16295097,14.8604581 C6.48890362,15.5250959 5.95999276,16.2865168 5.57389248,17.1493075 C5.18593148,18.0111808 4.99427688,18.9239685 4.99427688,19.885377 C4.99427688,20.879811 5.19616546,21.8086527 5.6004078,22.6696086 C6.00278942,23.5333168 6.54891198,24.2864812 7.23831031,24.933689 C7.92817382,25.580438 8.70130474,26.0946264 9.56002897,26.4762542 C10.4164273,26.857882 11.2998061,27.0477785 12.2073744,27.0477785 M13.670834,7.89758548 C15.1826724,8.06408896 16.6038006,8.49433761 17.9342184,9.19016618 C19.2613799,9.88737081 20.4052602,10.7740133 21.363068,11.851011 C22.3213409,12.9298434 23.0772602,14.1568318 23.6331515,15.5328936 C24.1885777,16.9089554 24.4648953,18.3607005 24.4648953,19.885377 L24.4648953,29.4852426 C24.4648953,30.1485044 24.2141627,30.7209461 23.7099064,31.2011917 C23.2047198,31.6823546 22.6320819,31.922248 21.9933883,31.922248 C21.7580067,31.922248 21.4975053,31.906194 21.2118841,31.8731685 C20.9257978,31.8396843 20.6485499,31.7484056 20.3806056,31.5988735 C20.1098702,31.4502588 19.8665805,31.2429322 19.6484106,30.977811 C19.4283799,30.7117724 19.3041766,30.347116 19.2697532,29.8833832 C19.1004273,29.9494341 18.7980596,30.0989662 18.3612546,30.3301446 C17.9239844,30.5631577 17.6053354,30.7278264 17.4034468,30.8282789 C17.0336279,30.9943237 16.6465972,31.1438558 16.2423549,31.2764164 C15.8399733,31.4080596 15.418054,31.5415376 14.981249,31.6731808 C14.1406669,31.8396843 13.2321682,31.922248 12.2571487,31.922248 C9.73633259,31.922248 7.48113482,31.2511886 5.49853315,29.9072349 C3.51360557,28.5655747 2.03526017,26.8317368 1.05931031,24.7093909 C0.72251922,23.9805368 0.462483008,23.2099422 0.277806128,22.3971484 C0.0926640669,21.5848133 9.30362115e-05,20.7472503 9.30362115e-05,19.885377 C9.30362115e-05,19.0235036 0.0926640669,18.1937384 0.277806128,17.3974573 C0.462483008,16.6020936 0.72251922,15.8232426 1.05931031,15.0609044 C2.03526017,12.905533 3.51360557,11.1638975 5.49853315,9.83783259 C7.48113482,8.51130903 9.73633259,7.84758857 12.2571487,7.84758857 L12.964224,7.84758857 C13.1661125,7.84758857 13.401029,7.86547737 13.670834,7.89758548" id="Fill-1" fill="#FFFFFF" sketch:type="MSShapeGroup"></path>
                            <path d="M54.4334872,19.8852394 C54.4334872,18.9903405 54.2399719,18.1114958 53.8529412,17.248705 C53.4659106,16.3868317 52.9369997,15.6162371 52.2648131,14.9364625 C51.5907657,14.256688 50.8185652,13.7172718 49.9435596,13.31959 C49.0694844,12.9214494 48.1437741,12.7228378 47.1687546,12.7228378 C46.1937351,12.7228378 45.2605819,12.9127344 44.369295,13.2943622 C43.4770777,13.67599 42.7048772,14.1901784 42.0480415,14.83601 C41.3930666,15.4827591 40.8715986,16.2460147 40.484568,17.1239421 C40.0975373,18.0037042 39.904022,18.9238309 39.904022,19.8852394 C39.904022,20.8796734 40.0975373,21.8085151 40.484568,22.669471 C40.8715986,23.5331792 41.3930666,24.2868023 42.0480415,24.9335514 C42.7048772,25.5803004 43.4770777,26.0944888 44.369295,26.4761166 C45.2605819,26.8577444 46.1937351,27.0476409 47.1687546,27.0476409 C48.1437741,27.0476409 49.0694844,26.8577444 49.9435596,26.4761166 C50.8185652,26.0944888 51.5907657,25.5803004 52.2648131,24.9335514 C52.9369997,24.2868023 53.4659106,23.5331792 53.8529412,22.669471 C54.2399719,21.8085151 54.4334872,20.8796734 54.4334872,19.8852394 L54.4334872,19.8852394 Z M57.0566432,0.187832432 C57.6269552,0.154348263 58.1647045,0.379563707 58.6708214,0.859350579 C59.1750777,1.34051351 59.427671,1.86204093 59.427671,2.42622625 L59.427671,19.8852394 C59.427671,21.509451 59.0908799,23.0520162 58.4182281,24.5106417 C57.7460415,25.9701846 56.8375429,27.2467112 55.6936627,28.3406803 C54.5507128,29.4351081 53.2477407,30.3052378 51.7842811,30.9519869 C50.322217,31.5987359 48.7833981,31.9221104 47.1687546,31.9221104 C45.5215485,31.9221104 43.9576097,31.6079097 42.4769384,30.978132 C40.9976627,30.3474371 39.7030638,29.4855637 38.593607,28.3906772 C37.4827546,27.2957907 36.6012365,26.0210988 35.9444008,24.5606386 C35.2894259,23.1024718 34.9614733,21.5433938 34.9614733,19.8852394 C34.9614733,18.0945243 35.2545373,16.5193923 35.8443869,15.1593846 C36.4323758,13.8002942 37.3143591,12.5237676 38.4917323,11.3298046 L38.4917323,11.3788842 C39.7356265,10.2188641 41.1069802,9.34001931 42.6030025,8.74326718 C44.09949,8.14559768 45.6378437,7.84745097 47.218529,7.84745097 C48.1609858,7.84745097 49.2783507,7.99698301 50.5729496,8.29512973 C51.8684788,8.59373514 53.1542393,9.17397452 54.4334872,10.0358479 L54.4334872,2.67483475 C54.4334872,2.34412124 54.5000081,2.0285444 54.6344454,1.73039768 C54.7688827,1.43225097 54.9451864,1.15795598 55.1647518,0.908888803 C55.3838521,0.660738996 55.6438883,0.469925097 55.9471864,0.337364479 C56.2486237,0.205721236 56.5523869,0.154348263 56.8547546,0.187832432 L57.0566432,0.187832432 Z" id="Fill-3" fill="#FFFFFF" sketch:type="MSShapeGroup"></path>
                            <path d="M88.6997008,14.9606354 C88.6997008,14.0336284 88.8839125,13.1373535 89.2555922,12.2750215 C89.6235504,11.4131481 90.128737,10.6498925 90.7674306,9.98663073 C91.4070546,9.32382764 92.1559961,8.7926678 93.0123944,8.39498595 C93.8711187,7.99684541 94.8033415,7.78217977 95.8127844,7.74777822 L105.549024,7.74777822 C106.222141,7.74777822 106.784545,8.00510178 107.239027,8.51929019 C107.693043,9.03347861 107.919121,9.57197745 107.919121,10.1361628 C107.919121,10.7994246 107.675832,11.3718663 107.186926,11.8511944 C106.700812,12.3328161 106.153759,12.5731682 105.549024,12.5731682 L96.1160825,12.5731682 C95.3075978,12.5731682 94.6944891,12.8052639 94.2744306,13.2699141 C93.8529766,13.7341056 93.6431799,14.2978323 93.6431799,14.9606354 C93.6431799,15.5913303 93.8529766,16.155057 94.2744306,16.6513566 C94.6944891,17.1490323 95.3075978,17.3971821 96.1160825,17.3971821 L102.318807,17.3971821 C103.294757,17.3971821 104.202325,17.5971697 105.043837,17.9939342 C105.884885,18.3925334 106.609172,18.924152 107.214372,19.5869551 C107.819573,20.2497581 108.298244,21.0203527 108.650851,21.8991975 C109.002993,22.7789597 109.180227,23.6821149 109.180227,24.6100392 C109.180227,25.6719002 108.996016,26.6498215 108.626197,27.545179 C108.254517,28.4409952 107.725606,29.2111311 107.036208,29.8574215 C106.346809,30.5050879 105.53972,31.0101025 104.61494,31.3747589 C103.68923,31.7403327 102.673275,31.9224315 101.561957,31.9224315 L92.2313554,31.9224315 C91.5587036,31.9224315 91.0121159,31.6912531 90.591127,31.2252269 C90.1715337,30.7619527 89.9608067,30.1986848 89.9608067,29.5345056 C89.9608067,28.904728 90.187815,28.3332037 90.6432273,27.8190153 C91.0963136,27.3048269 91.6587175,27.0314493 92.3322997,26.9975064 L101.561957,26.9975064 C102.371837,26.9975064 103.001227,26.7915558 103.455709,26.3759852 C103.908796,25.9617906 104.136269,25.3732948 104.136269,24.6100392 C104.136269,23.7821087 103.908796,23.1858153 103.455709,22.8193242 C103.001227,22.4555852 102.371837,22.272569 101.561957,22.272569 L95.5104167,22.272569 C94.5679599,22.272569 93.6850462,22.0817551 92.8607454,21.7001273 C92.0378401,21.3184995 91.3144836,20.7974307 90.6920713,20.134169 C90.0696591,19.4704485 89.5826145,18.6911388 89.2286117,17.79624 C88.8769348,16.9008825 88.6997008,15.9550693 88.6997008,14.9606354" id="Fill-5" fill="#FFFFFF" sketch:type="MSShapeGroup"></path>
                            <g id="Group-9">
                                <mask id="mask-2" sketch:name="Clip 8" fill="white">
                                    <use xlink:href="#path-1"></use>
                                </mask>
                                <g id="Clip-8"></g>
                                <path d="M114.39914,0.13751444 C115.004341,0.13751444 115.540229,0.369610193 116.013784,0.834719073 C116.483151,1.29936927 116.770633,1.87914996 116.870182,2.57543722 L116.870182,10.3345909 C118.282472,9.43923336 119.619867,8.81771212 120.881903,8.47002718 C122.142544,8.12142486 123.244093,7.94666502 124.184224,7.94666502 C125.83236,7.94666502 127.395834,8.24527042 128.87697,8.84293992 C130.355316,9.43923336 131.650845,10.2689986 132.761232,11.3294836 C133.871154,12.3913446 134.753603,13.6348457 135.408577,15.0609044 C136.064483,16.4865044 136.392435,18.0111808 136.392435,19.6363098 L136.392435,29.5347808 C136.392435,30.1985013 136.149146,30.7700256 135.662101,31.2511886 C135.173196,31.7314341 134.577299,31.9887577 133.871154,32.0227005 C133.2306,32.0227005 132.684477,31.7979438 132.23046,31.3498063 C131.776909,30.9016689 131.499196,30.347116 131.399182,29.6833955 L131.399182,19.9849121 C131.399182,19.0235036 131.213575,18.1116334 130.843756,17.2488426 C130.474402,16.3869693 129.968285,15.624631 129.330522,14.9604519 C128.690898,14.2976488 127.926605,13.775204 127.035318,13.3935762 C126.144031,13.0128658 125.193667,12.8220519 124.184224,12.8220519 C123.209204,12.8220519 122.309079,12.9958944 121.486639,13.3435793 C120.661873,13.6921816 119.922235,14.1733446 119.26726,14.7870681 C118.611355,15.400333 118.07314,16.1227654 117.651686,16.9493198 C117.232093,17.7790851 116.972057,18.6739839 116.870182,19.6363098 L116.870182,29.5347808 C116.870182,30.1985013 116.634335,30.7700256 116.165433,31.2511886 C115.691878,31.7314341 115.086678,31.9887577 114.348435,32.0227005 C113.775797,32.0227005 113.272472,31.7906048 112.835667,31.3254959 C112.396536,30.8613044 112.094168,30.2980364 111.927633,29.6352334 L111.927633,2.32728741 C112.061605,1.7626434 112.337458,1.25717004 112.759377,0.810408649 C113.17897,0.362271197 113.726023,0.13751444 114.39914,0.13751444" id="Fill-7" fill="#FFFFFF" sketch:type="MSShapeGroup" mask="url(#mask-2)"></path>
                            </g>
                            <g id="Group-12">
                                <mask id="mask-4" sketch:name="Clip 11" fill="white">
                                    <use xlink:href="#path-3"></use>
                                </mask>
                                <g id="Clip-11"></g>
                                <path d="M141.743041,31.9222022 C141.003403,31.9222022 140.372152,31.673135 139.852545,31.175918 C139.330147,30.6796184 139.06918,30.0489234 139.06918,29.2856678 L139.06918,10.5836122 C139.06918,9.85521683 139.330147,9.24057591 139.852545,8.74335892 C140.372152,8.24522456 141.003403,7.99707475 141.743041,7.99707475 C142.415228,7.99707475 143.01159,8.24522456 143.534918,8.74335892 C144.055456,9.24057591 144.315957,9.85521683 144.315957,10.5836122 L144.315957,29.2856678 C144.315957,30.0489234 144.055456,30.6796184 143.534918,31.175918 C143.01159,31.673135 142.415228,31.9222022 141.743041,31.9222022 M144.315957,2.7249234 C144.315957,3.45469483 144.063364,4.07667475 143.559108,4.58994579 C143.054852,5.10321683 142.450116,5.36054039 141.743041,5.36054039 C141.003403,5.36054039 140.372152,5.10321683 139.852545,4.58994579 C139.330147,4.07667475 139.06918,3.45469483 139.06918,2.7249234 C139.06918,2.02863614 139.330147,1.42408633 139.852545,0.908980541 C140.372152,0.395709498 141.003403,0.137468571 141.743041,0.137468571 C142.450116,0.137468571 143.054852,0.395709498 143.559108,0.908980541 C144.063364,1.42408633 144.315957,2.02863614 144.315957,2.7249234" id="Fill-10" fill="#FFFFFF" sketch:type="MSShapeGroup" mask="url(#mask-4)"></path>
                            </g>
                            <path d="M29.8134075,31.9401368 C29.0728393,31.9401368 28.4415886,31.6910697 27.9219813,31.1938527 C27.399583,30.6966357 27.1386164,30.0677754 27.1386164,29.3045198 L27.1386164,2.85477776 C27.1386164,2.12454764 27.399583,1.51082409 27.9219813,1.01452448 C28.4415886,0.515472741 29.0728393,0.268240309 29.8134075,0.268240309 C30.4855942,0.268240309 31.0819563,0.515472741 31.6043546,1.01452448 C32.1258226,1.51082409 32.386324,2.12454764 32.386324,2.85477776 L32.386324,29.3045198 C32.386324,30.0677754 32.1258226,30.6966357 31.6043546,31.1938527 C31.0819563,31.6910697 30.4855942,31.9401368 29.8134075,31.9401368" id="Fill-13" fill="#FFFFFF" sketch:type="MSShapeGroup"></path>
                            <g id="Group-17">
                                <mask id="mask-6" sketch:name="Clip 16" fill="white">
                                    <use xlink:href="#path-5"></use>
                                </mask>
                                <g id="Clip-16"></g>
                                <path d="M166.201377,27.5942585 C166.402335,27.8602971 166.571196,28.1497288 166.704703,28.4657643 C166.83914,28.7804238 166.907522,29.0868269 166.907522,29.3849736 C166.907522,29.7175219 166.856352,30.0408964 166.756338,30.3555558 C166.654929,30.6715914 166.469321,30.961023 166.201377,31.2252269 L166.201377,31.1761473 C165.595246,31.7073072 164.955622,31.971511 164.283436,31.971511 C163.611249,31.971511 163.02233,31.7242786 162.519004,31.2252269 L152.378522,21.2281381 L152.378522,29.3849736 C152.378522,30.0491527 152.118021,30.6376485 151.597018,31.1518369 C151.07555,31.665108 150.462441,31.9224315 149.755366,31.9224315 C149.083179,31.9224315 148.477979,31.6733643 147.94023,31.1761473 C147.40155,30.6798477 147.133606,30.0821782 147.133606,29.3849736 L147.133606,2.67469714 C147.133606,2.01189405 147.392246,1.42385699 147.914645,0.908751197 C148.436578,0.395480154 149.048756,0.137697915 149.755366,0.137697915 C150.495004,0.137697915 151.118347,0.386765097 151.621672,0.883982085 C152.127789,1.38211645 152.378522,1.97840988 152.378522,2.67469714 L152.378522,18.1939219 L162.519004,8.19591568 C162.988837,7.73172417 163.578221,7.49871104 164.283436,7.49871104 C164.620692,7.49871104 164.955622,7.5578817 165.292879,7.67347089 C165.629204,7.78997745 165.930642,7.98079135 166.201377,8.24499521 L166.201377,8.19591568 C166.469321,8.46195429 166.654929,8.75138595 166.756338,9.06650409 C166.856352,9.38208093 166.907522,9.70545544 166.907522,10.036169 C166.907522,10.7659404 166.67214,11.3626925 166.201377,11.826884 L158.179795,19.7364871 L166.201377,27.5942585 Z" id="Fill-15" fill="#FFFFFF" sketch:type="MSShapeGroup" mask="url(#mask-6)"></path>
                            </g>
                            <path d="M73.3357474,18.8348456 C73.1003657,17.6372131 72.6793769,16.3267436 71.939739,15.5965135 C71.2908114,14.9580208 70.6790983,14.6736347 70.1394883,14.591071 C69.6245329,14.5153876 69.1630733,14.6892301 68.8132571,14.997468 C68.496934,15.2768085 68.3057446,15.5923853 68.2182905,15.8983297 C68.1266499,16.230878 68.1517696,16.5891127 68.2671345,16.9308347 C68.3620315,17.2074232 68.5057724,17.4583251 68.6867279,17.6789537 C68.8909423,17.9284795 69.1491178,17.9940718 69.4370649,18.1784641 C70.2069396,18.6706355 70.9670454,18.7394386 71.7722738,18.7394386 L72.4900482,18.7394386 C72.764505,18.7394386 73.0454744,18.8614494 73.3357474,18.8348456" id="Fill-18" fill="#FFFFFF" sketch:type="MSShapeGroup"></path>
                            <path d="M66.1633997,17.4749296 C65.9135975,16.7378192 65.8666142,16.0259365 66.081993,15.2562593 C66.2755084,14.5567612 66.6802159,13.9274423 67.3351908,13.3499551 C68.1720515,12.6119273 69.2624359,12.2624076 70.4705111,12.4417543 C71.4571602,12.5894516 72.3870571,13.1178593 73.3960348,14.1136693 C73.4188287,14.136145 73.3457953,14.1696292 73.3457953,14.1925636 L73.3457953,7.83057127 C71.9502521,7.96221452 69.9750933,8.47365081 68.2957897,9.36809097 C66.3280738,10.4189435 64.8501936,11.7638145 63.7505056,13.7155288 C62.8117702,15.3814809 62.3340292,17.3634686 62.1963357,18.7395303 L66.9556031,18.7395303 C66.6169513,18.7395303 66.3443552,18.0056307 66.1633997,17.4749296" id="Fill-20" fill="#FFFFFF" sketch:type="MSShapeGroup"></path>
                            <path d="M80.3407228,17.6818434 C80.5202827,17.4612148 80.6635585,17.2126063 80.7589206,16.9355592 C80.8733552,16.5938372 80.8989401,16.240648 80.8049735,15.9076411 C80.7212409,15.6021554 80.5305167,15.296211 80.2132632,15.0164117 C79.8620515,14.7086326 79.4010571,14.554055 78.8865669,14.6301971 C78.347422,14.7123021 77.7361741,15.0352179 77.0867813,15.6741693 C76.3471435,16.4039407 75.9256894,17.636892 75.6912382,18.8349832 C75.981046,18.8611283 76.2620153,18.7395762 76.5369373,18.7395762 L77.2547117,18.7395762 C78.0594749,18.7395762 78.8191156,18.6716905 79.5899206,18.1799778 C79.8755418,17.9951268 80.1337173,17.9313693 80.3407228,17.6818434" id="Fill-22" fill="#FFFFFF" sketch:type="MSShapeGroup"></path>
                            <path d="M75.6248568,14.1229807 C76.6356953,13.1276293 77.6251354,12.6083954 78.6122496,12.4611568 C79.8212552,12.2813514 80.8837287,12.6510533 81.7196591,13.3881637 C82.3727733,13.9661097 82.7639905,14.6334996 82.9593666,15.3339151 C83.173815,16.1031336 83.1207844,16.7374981 82.8686563,17.4750672 C82.6895616,18.0057683 82.4104529,18.7392093 82.0708708,18.7392093 L86.829673,18.7392093 C86.6896535,17.3631475 86.1439961,15.3816185 85.1936312,13.7152077 C84.0785922,11.7639521 82.6467649,10.3415629 80.6776535,9.29071042 C79.0104446,8.40269189 77.0673833,7.96923243 75.6718401,7.83300232 L75.6718401,14.1908664 C75.6718401,14.1688494 75.6025281,14.1449977 75.6248568,14.1229807" id="Fill-24" fill="#FFFFFF" sketch:type="MSShapeGroup"></path>
                            <path d="M76.9254565,21.0328749 L80.6208549,26.9935158 L78.9020109,26.0605459 L79.0201669,27.9604286 L75.6717936,22.2928888 L75.6717936,32.1065027 C77.0673368,31.97119 79.1066905,31.4496625 80.7794816,30.538251 C82.7439412,29.4685923 84.2101919,28.0388641 85.2963897,26.1082494 C86.2239607,24.4578927 86.6970499,22.8676239 86.8314872,21.0328749 L76.9254565,21.0328749 Z" id="Fill-26" fill="#FFFFFF" sketch:type="MSShapeGroup"></path>
                            <path d="M69.9522994,28.0959248 L70.0164944,26.1781534 L68.3269568,27.1469008 L72.1460933,21.0330584 L62.1949401,21.0330584 C62.3293774,22.8678074 62.8582883,24.4576175 63.7863245,26.1084329 C64.8701964,28.0390476 66.2773691,29.5040947 68.2422939,30.5737534 C69.9215975,31.4892931 71.9502521,31.9759603 73.3457953,32.1080622 L73.3457953,22.3660036 L69.9522994,28.0959248 Z" id="Fill-28" fill="#FFFFFF" sketch:type="MSShapeGroup"></path>
                        </g>
                    </g>
                </g>
            </g>
        </g>
    </g>
</svg>