<?xml version="1.0" encoding="UTF-8" standalone="no"?>
<svg width="168px" height="73px" viewBox="0 0 168 73" version="1.1" xmlns="http://www.w3.org/2000/svg" xmlns:xlink="http://www.w3.org/1999/xlink" xmlns:sketch="http://www.bohemiancoding.com/sketch/ns">
    <!-- Generator: Sketch 3.4 (15575) - http://www.bohemiancoding.com/sketch -->
    <title>CSSFILTERS.CO + shutter4</title>
    <desc>Created with Sketch.</desc>
    <defs></defs>
    <g id="Final" stroke="none" stroke-width="1" fill="none" fill-rule="evenodd" sketch:type="MSPage">
        <g id="About-Copy" sketch:type="MSArtboardGroup" transform="translate(-266.000000, -488.000000)" fill="#FFFFFF">
            <g id="CSSFILTERS.CO-+-shutter4" sketch:type="MSLayerGroup" transform="translate(266.000000, 488.000000)">
                <path d="M7.12,72.8 C10.04,72.8 11.74,71.18 12.68,69.52 L10.24,68.34 C9.68,69.42 8.48,70.28 7.12,70.28 C4.68,70.28 2.92,68.42 2.92,65.9 C2.92,63.38 4.68,61.52 7.12,61.52 C8.48,61.52 9.68,62.38 10.24,63.46 L12.68,62.26 C11.74,60.58 10.04,59 7.12,59 C3.1,59 0,61.78 0,65.9 C0,70 3.1,72.8 7.12,72.8 L7.12,72.8 Z M21.14,72.8 C24.72,72.8 26.48,70.96 26.48,68.52 C26.48,63.54 18.82,64.96 18.82,62.86 C18.82,62.06 19.5,61.54 20.7,61.54 C22.06,61.54 23.5,62 24.58,63 L26.16,60.88 C24.84,59.66 23.08,59.02 20.96,59.02 C17.82,59.02 15.9,60.86 15.9,63.08 C15.9,68.1 23.58,66.48 23.58,68.8 C23.58,69.58 22.84,70.28 21.26,70.28 C19.42,70.28 17.96,69.44 17.02,68.46 L15.46,70.68 C16.72,71.94 18.56,72.8 21.14,72.8 L21.14,72.8 Z M35.14,72.8 C38.72,72.8 40.48,70.96 40.48,68.52 C40.48,63.54 32.82,64.96 32.82,62.86 C32.82,62.06 33.5,61.54 34.7,61.54 C36.06,61.54 37.5,62 38.58,63 L40.16,60.88 C38.84,59.66 37.08,59.02 34.96,59.02 C31.82,59.02 29.9,60.86 29.9,63.08 C29.9,68.1 37.58,66.48 37.58,68.8 C37.58,69.58 36.84,70.28 35.26,70.28 C33.42,70.28 31.96,69.44 31.02,68.46 L29.46,70.68 C30.72,71.94 32.56,72.8 35.14,72.8 L35.14,72.8 Z M47.22,72.56 L47.22,67.02 L53.68,67.02 L53.68,64.52 L47.22,64.52 L47.22,61.72 L53.82,61.72 L53.82,59.22 L44.38,59.22 L44.38,72.56 L47.22,72.56 Z M60.64,72.56 L60.64,59.22 L57.8,59.22 L57.8,72.56 L60.64,72.56 Z M73.66,72.56 L73.66,70.06 L68.02,70.06 L68.02,59.22 L65.16,59.22 L65.16,72.56 L73.66,72.56 Z M81.52,72.56 L81.52,61.72 L85.4,61.72 L85.4,59.22 L74.76,59.22 L74.76,61.72 L78.66,61.72 L78.66,72.56 L81.52,72.56 Z M98.66,72.56 L98.66,70.06 L92.06,70.06 L92.06,67.02 L98.52,67.02 L98.52,64.52 L92.06,64.52 L92.06,61.72 L98.66,61.72 L98.66,59.22 L89.22,59.22 L89.22,72.56 L98.66,72.56 Z M113.7,72.56 L110.68,67.48 C112.12,67.14 113.62,65.86 113.62,63.52 C113.62,61.04 111.9,59.22 109.12,59.22 L102.88,59.22 L102.88,72.56 L105.72,72.56 L105.72,67.82 L107.8,67.82 L110.42,72.56 L113.7,72.56 Z M108.72,65.32 L105.72,65.32 L105.72,61.72 L108.72,61.72 C109.84,61.72 110.7,62.4 110.7,63.5 C110.7,64.64 109.84,65.32 108.72,65.32 L108.72,65.32 Z M122.5,72.8 C126.08,72.8 127.84,70.96 127.84,68.52 C127.84,63.54 120.18,64.96 120.18,62.86 C120.18,62.06 120.86,61.54 122.06,61.54 C123.42,61.54 124.86,62 125.94,63 L127.52,60.88 C126.2,59.66 124.44,59.02 122.32,59.02 C119.18,59.02 117.26,60.86 117.26,63.08 C117.26,68.1 124.94,66.48 124.94,68.8 C124.94,69.58 124.2,70.28 122.62,70.28 C120.78,70.28 119.32,69.44 118.38,68.46 L116.82,70.68 C118.08,71.94 119.92,72.8 122.5,72.8 L122.5,72.8 Z M132.98,72.78 C133.86,72.78 134.6,72.04 134.6,71.16 C134.6,70.28 133.86,69.54 132.98,69.54 C132.1,69.54 131.36,70.28 131.36,71.16 C131.36,72.04 132.1,72.78 132.98,72.78 L132.98,72.78 Z M145.36,72.8 C148.28,72.8 149.98,71.18 150.92,69.52 L148.48,68.34 C147.92,69.42 146.72,70.28 145.36,70.28 C142.92,70.28 141.16,68.42 141.16,65.9 C141.16,63.38 142.92,61.52 145.36,61.52 C146.72,61.52 147.92,62.38 148.48,63.46 L150.92,62.26 C149.98,60.58 148.28,59 145.36,59 C141.34,59 138.24,61.78 138.24,65.9 C138.24,70 141.34,72.8 145.36,72.8 L145.36,72.8 Z M160.96,72.8 C164.98,72.8 167.92,69.92 167.92,65.9 C167.92,61.88 164.98,59 160.96,59 C156.92,59 153.98,61.88 153.98,65.9 C153.98,69.92 156.92,72.8 160.96,72.8 L160.96,72.8 Z M160.96,70.28 C158.48,70.28 156.9,68.38 156.9,65.9 C156.9,63.4 158.48,61.52 160.96,61.52 C163.42,61.52 165,63.4 165,65.9 C165,68.38 163.42,70.28 160.96,70.28 L160.96,70.28 Z" id="CSSFILTERS.CO" sketch:type="MSShapeGroup"></path>
                <g id="shutter4" transform="translate(63.000000, 0.000000)" sketch:type="MSShapeGroup">
                    <g id="Capa_1">
                        <g id="Group">
                            <path d="M12.5960345,5.37944828 C12.5960345,5.37944828 7.32334483,7.33965517 4.20955172,14.711931 L21.3873103,11.4646897 L12.5960345,5.37944828 L12.5960345,5.37944828 Z" id="Shape"></path>
                            <path d="M3.95006897,15.7632069 C3.95006897,15.7632069 1.62510345,20.8861379 4.66327586,28.2895517 L14.4672759,13.8133793 L3.95006897,15.7632069 L3.95006897,15.7632069 Z" id="Shape"></path>
                            <path d="M5.32013793,29.019069 C5.32013793,29.019069 7.28034483,34.2917586 14.6526207,37.4055517 L11.4068621,20.2248276 L5.32013793,29.019069 L5.32013793,29.019069 Z" id="Shape"></path>
                            <path d="M15.7038966,37.6635517 C15.7038966,37.6635517 20.8268276,39.9870345 28.2302414,36.9503448 L13.754069,27.1493103 L15.7038966,37.6635517 L15.7038966,37.6635517 Z" id="Shape"></path>
                            <path d="M29.2429655,36.5188621 C29.2429655,36.5188621 34.5171379,34.5586552 37.6294483,27.1834138 L20.4502069,30.4291724 L29.2429655,36.5188621 L29.2429655,36.5188621 Z" id="Shape"></path>
                            <path d="M37.1742414,13.6072759 L27.3732069,28.0834483 L37.8904138,26.1321379 C37.8904138,26.1336207 40.2124138,21.0106897 37.1742414,13.6072759 L37.1742414,13.6072759 Z" id="Shape"></path>
                            <path d="M36.5173793,12.8777586 C36.5173793,12.8777586 34.5571724,7.60506897 27.1834138,4.49275862 L30.4291724,21.6705172 L36.5173793,12.8777586 L36.5173793,12.8777586 Z" id="Shape"></path>
                            <path d="M26.1321379,4.23327586 C26.1321379,4.23327586 21.0121724,1.90831034 13.6072759,4.94796552 L28.084931,14.749 L26.1321379,4.23327586 L26.1321379,4.23327586 Z" id="Shape"></path>
                            <path d="M20.9825172,0 C9.39475862,0 0,9.39475862 0,20.9810345 C0,32.5658276 9.39327586,41.962069 20.9825172,41.962069 C32.5673103,41.962069 41.962069,32.5643448 41.962069,20.9810345 C41.9635517,9.39475862 32.5687931,0 20.9825172,0 L20.9825172,0 Z M20.9825172,40.339931 C10.3081379,40.339931 1.62213793,31.6554138 1.62213793,20.9810345 C1.62213793,10.3066552 10.3081379,1.62213793 20.9825172,1.62213793 C31.653931,1.62213793 40.339931,10.3066552 40.339931,20.9810345 C40.339931,31.6554138 31.653931,40.339931 20.9825172,40.339931 L20.9825172,40.339931 Z" id="Shape"></path>
                        </g>
                    </g>
                </g>
            </g>
        </g>
    </g>
</svg>