<?xml version="1.0" encoding="UTF-8" standalone="no"?>
<svg width="43px" height="16px" viewBox="0 0 43 16" version="1.1" xmlns="http://www.w3.org/2000/svg" xmlns:xlink="http://www.w3.org/1999/xlink" xmlns:sketch="http://www.bohemiancoding.com/sketch/ns">
    <!-- Generator: Sketch 3.4 (15575) - http://www.bohemiancoding.com/sketch -->
    <title>logo</title>
    <desc>Created with Sketch.</desc>
    <defs></defs>
    <g id="Final" stroke="none" stroke-width="1" fill="none" fill-rule="evenodd" sketch:type="MSPage">
        <g id="Home" sketch:type="MSArtboardGroup" transform="translate(-70.000000, -63.000000)" fill="#000000">
            <g id="Header" sketch:type="MSLayerGroup" transform="translate(0.000000, 10.000000)">
                <g id="Logo" transform="translate(70.000000, 24.000000)" sketch:type="MSShapeGroup">
                    <path d="M4.1,38.2 L5.1,38.2 L5.1,40.78 C5.1,41.78 4.66,42.14 3.96,42.14 C3.26,42.14 2.82,41.78 2.82,40.78 L2.82,33.22 C2.82,32.22 3.26,31.84 3.96,31.84 C4.66,31.84 5.1,32.22 5.1,33.22 L5.1,34.72 L7.18,34.72 L7.18,33.36 C7.18,31.12 6.06,29.84 3.9,29.84 C1.74,29.84 0.62,31.12 0.62,33.36 L0.62,40.64 C0.62,42.88 1.74,44.16 3.9,44.16 C6.06,44.16 7.18,42.88 7.18,40.64 L7.18,36.2 L4.1,36.2 L4.1,38.2 Z M11.4666667,38 L13.9666667,38 L13.9666667,44 L16.2066667,44 L16.2066667,30 L13.9666667,30 L13.9666667,36 L11.4666667,36 L11.4666667,30 L9.26666669,30 L9.26666669,44 L11.4666667,44 L11.4666667,38 Z M20.4933334,33.22 C20.4933334,32.22 20.9333334,31.84 21.6333334,31.84 C22.3333334,31.84 22.7733334,32.22 22.7733334,33.22 L22.7733334,40.78 C22.7733334,41.78 22.3333334,42.16 21.6333334,42.16 C20.9333334,42.16 20.4933334,41.78 20.4933334,40.78 L20.4933334,33.22 Z M18.2933334,40.64 C18.2933334,42.88 19.4733334,44.16 21.6333334,44.16 C23.7933334,44.16 24.9733334,42.88 24.9733334,40.64 L24.9733334,33.36 C24.9733334,31.12 23.7933334,29.84 21.6333334,29.84 C19.4733334,29.84 18.2933334,31.12 18.2933334,33.36 L18.2933334,40.64 Z M26.7800001,33.36 C26.7800001,37.36 31.0800001,37.9 31.0800001,40.78 C31.0800001,41.78 30.6400001,42.14 29.9400001,42.14 C29.2400001,42.14 28.8000001,41.78 28.8000001,40.78 L28.8000001,39.78 L26.7200001,39.78 L26.7200001,40.64 C26.7200001,42.88 27.8400001,44.16 30.0000001,44.16 C32.1600001,44.16 33.2800001,42.88 33.2800001,40.64 C33.2800001,36.64 28.9800001,36.1 28.9800001,33.22 C28.9800001,32.22 29.3800001,31.84 30.0800001,31.84 C30.7800001,31.84 31.1800001,32.22 31.1800001,33.22 L31.1800001,33.8 L33.2600001,33.8 L33.2600001,33.36 C33.2600001,31.12 32.1600001,29.84 30.0200001,29.84 C27.8800001,29.84 26.7800001,31.12 26.7800001,33.36 L26.7800001,33.36 Z M37.4066667,38 L39.9066667,38 L39.9066667,44 L42.1466667,44 L42.1466667,30 L39.9066667,30 L39.9066667,36 L37.4066667,36 L37.4066667,30 L35.2066667,30 L35.2066667,44 L37.4066667,44 L37.4066667,38 Z" id="logo"></path>
                </g>
            </g>
        </g>
    </g>
</svg>