<?xml version="1.0" encoding="UTF-8" standalone="no"?>
<svg width="150px" height="52px" viewBox="0 0 150 52" version="1.1" xmlns="http://www.w3.org/2000/svg" xmlns:xlink="http://www.w3.org/1999/xlink" xmlns:sketch="http://www.bohemiancoding.com/sketch/ns">
    <!-- Generator: Sketch 3.4 (15575) - http://www.bohemiancoding.com/sketch -->
    <title>GHOSH Copy</title>
    <desc>Created with Sketch.</desc>
    <defs></defs>
    <g id="Final" stroke="none" stroke-width="1" fill="none" fill-rule="evenodd" sketch:type="MSPage">
        <g id="Home" sketch:type="MSArtboardGroup" transform="translate(-72.000000, -76.000000)" fill="#484848">
            <g id="Header" sketch:type="MSLayerGroup" transform="translate(0.000000, 10.000000)">
                <g id="Logo" transform="translate(70.000000, 24.000000)" sketch:type="MSShapeGroup">
                    <path d="M14.76,72.12 L18.36,72.12 L18.36,81.408 C18.36,85.008 16.776,86.304 14.256,86.304 C11.736,86.304 10.152,85.008 10.152,81.408 L10.152,54.192 C10.152,50.592 11.736,49.224 14.256,49.224 C16.776,49.224 18.36,50.592 18.36,54.192 L18.36,59.592 L25.848,59.592 L25.848,54.696 C25.848,46.632 21.816,42.024 14.04,42.024 C6.264,42.024 2.232,46.632 2.232,54.696 L2.232,80.904 C2.232,88.968 6.264,93.576 14.04,93.576 C21.816,93.576 25.848,88.968 25.848,80.904 L25.848,64.92 L14.76,64.92 L14.76,72.12 Z M41.2800001,71.4 L50.2800001,71.4 L50.2800001,93 L58.3440001,93 L58.3440001,42.6 L50.2800001,42.6 L50.2800001,64.2 L41.2800001,64.2 L41.2800001,42.6 L33.3600001,42.6 L33.3600001,93 L41.2800001,93 L41.2800001,71.4 Z M73.7760002,54.192 C73.7760002,50.592 75.3600002,49.224 77.8800002,49.224 C80.4000002,49.224 81.9840002,50.592 81.9840002,54.192 L81.9840002,81.408 C81.9840002,85.008 80.4000002,86.376 77.8800002,86.376 C75.3600002,86.376 73.7760002,85.008 73.7760002,81.408 L73.7760002,54.192 Z M65.8560002,80.904 C65.8560002,88.968 70.1040002,93.576 77.8800002,93.576 C85.6560002,93.576 89.9040002,88.968 89.9040002,80.904 L89.9040002,54.696 C89.9040002,46.632 85.6560002,42.024 77.8800002,42.024 C70.1040002,42.024 65.8560002,46.632 65.8560002,54.696 L65.8560002,80.904 Z M96.4080003,54.696 C96.4080003,69.096 111.888,71.04 111.888,81.408 C111.888,85.008 110.304,86.304 107.784,86.304 C105.264,86.304 103.68,85.008 103.68,81.408 L103.68,77.808 L96.1920003,77.808 L96.1920003,80.904 C96.1920003,88.968 100.224,93.576 108,93.576 C115.776,93.576 119.808,88.968 119.808,80.904 C119.808,66.504 104.328,64.56 104.328,54.192 C104.328,50.592 105.768,49.224 108.288,49.224 C110.808,49.224 112.248,50.592 112.248,54.192 L112.248,56.28 L119.736,56.28 L119.736,54.696 C119.736,46.632 115.776,42.024 108.072,42.024 C100.368,42.024 96.4080003,46.632 96.4080003,54.696 L96.4080003,54.696 Z M134.664,71.4 L143.664,71.4 L143.664,93 L151.728,93 L151.728,42.6 L143.664,42.6 L143.664,64.2 L134.664,64.2 L134.664,42.6 L126.744,42.6 L126.744,93 L134.664,93 L134.664,71.4 Z" id="GHOSH-Copy"></path>
                </g>
            </g>
        </g>
    </g>
</svg>