<?xml version="1.0" encoding="UTF-8" standalone="no"?>
<svg width="178px" height="22px" viewBox="0 0 178 22" version="1.1" xmlns="http://www.w3.org/2000/svg" xmlns:xlink="http://www.w3.org/1999/xlink" xmlns:sketch="http://www.bohemiancoding.com/sketch/ns">
    <!-- Generator: Sketch 3.4 (15575) - http://www.bohemiancoding.com/sketch -->
    <title>Fill 1</title>
    <desc>Created with Sketch.</desc>
    <defs></defs>
    <g id="Final" stroke="none" stroke-width="1" fill="none" fill-rule="evenodd" sketch:type="MSPage">
        <g id="Home" sketch:type="MSArtboardGroup" transform="translate(-70.000000, -492.000000)" fill="#FFFFFF">
            <g id="Moodboard" sketch:type="MSLayerGroup" transform="translate(-1.000000, 419.000000)">
                <g id="Details" transform="translate(71.000000, 73.000000)" sketch:type="MSShapeGroup">
                    <g id="Logo-Copy">
                        <path d="M18.435845,4.60810811 C18.435845,2.06309459 16.4012272,0 13.8913424,0 C11.8303372,0 10.0897927,1.3912027 9.5331644,3.29799324 L9.52876649,3.30037162 C9.73627435,3.18635811 9.97390785,3.12162162 10.2264209,3.12162162 C11.0360754,3.12162162 11.6923895,3.78712162 11.6923895,4.60810811 L11.6923895,12.1891892 C11.6923895,15.9656081 14.7115518,19.027027 18.435845,19.027027 L18.435845,12.1891892 L18.435845,4.60810811 Z M8.90704921,4.60810811 C8.90704921,2.06309459 6.87243141,0 4.3625466,0 C2.30154136,0 0.560996859,1.3912027 0.00436858639,3.29799324 L-2.93193717e-05,3.30037162 C0.207478534,3.18635811 0.445112042,3.12162162 0.697625131,3.12162162 C1.50727958,3.12162162 2.16359372,3.78712162 2.16359372,4.60810811 L2.16359372,9.21621622 C2.16359372,12.9926351 5.18275602,16.0540541 8.90704921,16.0540541 L8.90704921,9.21621622 L8.90704921,4.60810811 Z M27.9646408,4.60810811 C27.9646408,2.06309459 25.930023,0 23.4201382,0 C21.359133,0 19.6185885,1.3912027 19.0619602,3.29799324 L19.0575623,3.30037162 C19.2650702,3.18635811 19.5027037,3.12162162 19.7552168,3.12162162 C20.5648712,3.12162162 21.2211853,3.78712162 21.2211853,4.60810811 L21.2211853,15.1621622 C21.2211853,18.9385811 24.2403476,22 27.9646408,22 L27.9646408,15.1621622 L27.9646408,4.60810811 Z M38.8,17.9 C38.8,18.58 39.32,19.1 40,19.1 C40.68,19.1 41.22,18.58 41.22,17.9 L41.22,9.52 L44.62,14.62 C44.88,15.02 45.2,15.26 45.64,15.26 C46.1,15.26 46.42,15.02 46.68,14.62 L50.1,9.48 L50.1,17.88 C50.1,18.54 50.66,19.1 51.32,19.1 C52.02,19.1 52.56,18.56 52.56,17.88 L52.56,6.16 C52.56,5.48 52.02,4.92 51.32,4.92 L51.06,4.92 C50.56,4.92 50.2,5.14 49.94,5.56 L45.68,12.22 L41.44,5.58 C41.2,5.2 40.84,4.92 40.3,4.92 L40.04,4.92 C39.34,4.92 38.8,5.48 38.8,6.16 L38.8,17.9 Z M60.9,19.24 C64.16,19.24 66.56,16.74 66.56,13.74 L66.56,13.7 C66.56,10.68 64.18,8.22 60.94,8.22 C57.7,8.22 55.3,10.72 55.3,13.74 L55.3,13.78 C55.3,16.78 57.68,19.24 60.9,19.24 L60.9,19.24 Z M60.94,17.12 C59.06,17.12 57.72,15.58 57.72,13.74 L57.72,13.7 C57.72,11.86 58.96,10.34 60.9,10.34 C62.8,10.34 64.14,11.88 64.14,13.74 L64.14,13.78 C64.14,15.6 62.9,17.12 60.94,17.12 L60.94,17.12 Z M74.04,19.24 C77.3,19.24 79.7,16.74 79.7,13.74 L79.7,13.7 C79.7,10.68 77.32,8.22 74.08,8.22 C70.84,8.22 68.44,10.72 68.44,13.74 L68.44,13.78 C68.44,16.78 70.82,19.24 74.04,19.24 L74.04,19.24 Z M74.08,17.12 C72.2,17.12 70.86,15.58 70.86,13.74 L70.86,13.7 C70.86,11.86 72.1,10.34 74.04,10.34 C75.94,10.34 77.28,11.88 77.28,13.74 L77.28,13.78 C77.28,15.6 76.04,17.12 74.08,17.12 L74.08,17.12 Z M92.54,5.5 C92.54,4.82 92,4.3 91.32,4.3 C90.66,4.3 90.12,4.82 90.12,5.5 L90.12,10.08 C89.36,9.08 88.26,8.22 86.52,8.22 C84,8.22 81.62,10.2 81.62,13.7 L81.62,13.74 C81.62,17.24 84.04,19.22 86.52,19.22 C88.24,19.22 89.34,18.34 90.12,17.24 L90.12,17.9 C90.12,18.58 90.66,19.1 91.34,19.1 C92,19.1 92.54,18.58 92.54,17.9 L92.54,5.5 Z M87.1,10.32 C88.72,10.32 90.16,11.66 90.16,13.7 L90.16,13.74 C90.16,15.76 88.72,17.12 87.1,17.12 C85.46,17.12 84.06,15.78 84.06,13.74 L84.06,13.7 C84.06,11.6 85.44,10.32 87.1,10.32 L87.1,10.32 Z M95.58,17.9 C95.58,18.56 96.12,19.1 96.78,19.1 C97.46,19.1 98,18.56 98,17.9 L98,17.36 C98.74,18.34 99.84,19.22 101.6,19.22 C104.1,19.22 106.5,17.24 106.5,13.74 L106.5,13.7 C106.5,10.18 104.08,8.22 101.6,8.22 C99.88,8.22 98.78,9.1 98,10.2 L98,5.5 C98,4.82 97.46,4.3 96.78,4.3 C96.1,4.3 95.58,4.82 95.58,5.5 L95.58,17.9 Z M101.02,17.12 C99.38,17.12 97.94,15.76 97.94,13.74 L97.94,13.7 C97.94,11.68 99.38,10.32 101.02,10.32 C102.66,10.32 104.04,11.66 104.04,13.7 L104.04,13.74 C104.04,15.82 102.68,17.12 101.02,17.12 L101.02,17.12 Z M114.02,19.24 C117.28,19.24 119.68,16.74 119.68,13.74 L119.68,13.7 C119.68,10.68 117.3,8.22 114.06,8.22 C110.82,8.22 108.42,10.72 108.42,13.74 L108.42,13.78 C108.42,16.78 110.8,19.24 114.02,19.24 L114.02,19.24 Z M114.06,17.12 C112.18,17.12 110.84,15.58 110.84,13.74 L110.84,13.7 C110.84,11.86 112.08,10.34 114.02,10.34 C115.92,10.34 117.26,11.88 117.26,13.74 L117.26,13.78 C117.26,15.6 116.02,17.12 114.06,17.12 L114.06,17.12 Z M125.18,19.22 C126.8,19.22 127.9,18.54 128.62,17.68 L128.62,18.08 C128.62,18.62 129.1,19.1 129.8,19.1 C130.46,19.1 130.98,18.6 130.98,17.94 L130.98,12.74 C130.98,11.36 130.62,10.24 129.84,9.48 C129.1,8.72 127.92,8.3 126.34,8.3 C124.96,8.3 123.94,8.54 122.94,8.92 C122.58,9.06 122.28,9.44 122.28,9.88 C122.28,10.44 122.74,10.88 123.3,10.88 C123.42,10.88 123.54,10.86 123.68,10.82 C124.34,10.56 125.1,10.4 126.02,10.4 C127.72,10.4 128.64,11.2 128.64,12.7 L128.64,12.96 C127.82,12.7 126.98,12.52 125.8,12.52 C123.22,12.52 121.44,13.64 121.44,15.92 L121.44,15.96 C121.44,18.08 123.2,19.22 125.18,19.22 L125.18,19.22 Z M125.86,17.46 C124.7,17.46 123.8,16.88 123.8,15.86 L123.8,15.82 C123.8,14.72 124.72,14.06 126.28,14.06 C127.24,14.06 128.06,14.24 128.68,14.48 L128.68,15.2 C128.68,16.54 127.46,17.46 125.86,17.46 L125.86,17.46 Z M133.88,17.9 C133.88,18.58 134.42,19.1 135.08,19.1 C135.76,19.1 136.3,18.56 136.3,17.9 L136.3,14.78 C136.3,12.28 137.48,10.96 139.2,10.66 C139.74,10.56 140.16,10.14 140.16,9.5 C140.16,8.8 139.72,8.3 138.96,8.3 C137.9,8.3 136.86,9.3 136.3,10.62 L136.3,9.54 C136.3,8.86 135.76,8.32 135.08,8.32 C134.4,8.32 133.88,8.86 133.88,9.54 L133.88,17.9 Z M152.22,5.5 C152.22,4.82 151.68,4.3 151,4.3 C150.34,4.3 149.8,4.82 149.8,5.5 L149.8,10.08 C149.04,9.08 147.94,8.22 146.2,8.22 C143.68,8.22 141.3,10.2 141.3,13.7 L141.3,13.74 C141.3,17.24 143.72,19.22 146.2,19.22 C147.92,19.22 149.02,18.34 149.8,17.24 L149.8,17.9 C149.8,18.58 150.34,19.1 151.02,19.1 C151.68,19.1 152.22,18.58 152.22,17.9 L152.22,5.5 Z M146.78,10.32 C148.4,10.32 149.84,11.66 149.84,13.7 L149.84,13.74 C149.84,15.76 148.4,17.12 146.78,17.12 C145.14,17.12 143.74,15.78 143.74,13.74 L143.74,13.7 C143.74,11.6 145.12,10.32 146.78,10.32 L146.78,10.32 Z M155.02,17.52 L155.02,17.72 C155.02,18.5 155.62,19.1 156.44,19.1 C157.24,19.1 157.84,18.5 157.84,17.72 L157.84,17.52 C157.84,16.74 157.24,16.14 156.44,16.14 C155.62,16.14 155.02,16.74 155.02,17.52 L155.02,17.52 Z M160.6,5.72 C160.6,6.44 161.2,6.92 161.98,6.92 C162.76,6.92 163.36,6.44 163.36,5.72 L163.36,5.6 C163.36,4.88 162.76,4.42 161.98,4.42 C161.2,4.42 160.6,4.88 160.6,5.6 L160.6,5.72 Z M160.78,17.9 C160.78,18.58 161.32,19.1 161.98,19.1 C162.66,19.1 163.2,18.58 163.2,17.9 L163.2,9.54 C163.2,8.86 162.66,8.32 161.98,8.32 C161.3,8.32 160.78,8.86 160.78,9.54 L160.78,17.9 Z M171.38,19.24 C174.64,19.24 177.04,16.74 177.04,13.74 L177.04,13.7 C177.04,10.68 174.66,8.22 171.42,8.22 C168.18,8.22 165.78,10.72 165.78,13.74 L165.78,13.78 C165.78,16.78 168.16,19.24 171.38,19.24 L171.38,19.24 Z M171.42,17.12 C169.54,17.12 168.2,15.58 168.2,13.74 L168.2,13.7 C168.2,11.86 169.44,10.34 171.38,10.34 C173.28,10.34 174.62,11.88 174.62,13.74 L174.62,13.78 C174.62,15.6 173.38,17.12 171.42,17.12 L171.42,17.12 Z" id="Fill-1"></path>
                    </g>
                </g>
            </g>
        </g>
    </g>
</svg>