<?xml version="1.0" encoding="UTF-8" standalone="no"?>
<svg width="850px" height="131px" viewBox="0 0 850 131" version="1.1" xmlns="http://www.w3.org/2000/svg" xmlns:xlink="http://www.w3.org/1999/xlink" xmlns:sketch="http://www.bohemiancoding.com/sketch/ns">
    <!-- Generator: Sketch 3.4 (15575) - http://www.bohemiancoding.com/sketch -->
    <title>uiGradients</title>
    <desc>Created with Sketch.</desc>
    <defs></defs>
    <g id="Final" stroke="none" stroke-width="1" fill="none" fill-rule="evenodd" sketch:type="MSPage">
        <g id="About-Copy" sketch:type="MSArtboardGroup" transform="translate(-215.000000, -440.000000)" fill="#FFFFFF">
            <path d="M997.58802,509.430912 C981.878291,523.471386 952.476657,549.369538 944.750121,556.709747 C933.55525,567.261235 926.606709,570.349475 921.202289,570.349475 C912.709628,570.349475 908.849328,564.172995 916.183898,550.79062 C917.53878,548.284089 921.996522,539.928488 927.886016,528.915821 C916.35406,540.481603 904.630898,552.160257 899.84196,556.709747 C888.647089,567.261235 881.569872,570.349475 876.294128,570.349475 C867.801467,570.349475 863.941167,564.172995 871.275737,550.79062 C876.551481,541.139869 880.283105,533.676622 886.202232,522.867781 C891.477976,512.959677 893.150773,507.297903 888.775766,507.297903 C881.312518,507.297903 846.955845,539.467073 830.227877,570.349475 L830.48523,569.963445 L830.227877,570.349475 L809.896962,570.349475 L817.760731,555.704309 C806.221057,564.566434 793.986311,570.349475 781.845446,570.349475 C758.180475,570.349475 748.654369,556.645652 752.831707,537.892011 C744.585156,546.107431 737.255681,553.3512 733.720368,556.709747 C722.525497,567.261235 715.576956,570.349475 710.172536,570.349475 C701.679875,570.349475 697.819575,564.172995 705.154145,550.79062 C706.963506,547.480814 711.67879,538.707268 717.093956,528.606954 C705.433252,540.273106 693.515101,552.119756 688.683531,556.709747 C677.617336,567.261235 670.540119,570.349475 665.135698,570.349475 C657.929804,570.349475 654.069504,565.974468 657.543774,556.452394 C649.95185,564.044318 640.815806,570.349475 631.937115,570.349475 C619.258361,570.349475 612.99612,559.542716 617.456611,543.018363 C611.393109,549.037698 606.276158,554.071989 603.499569,556.709747 C592.433375,567.261235 585.356158,570.349475 579.951737,570.349475 C572.745843,570.349475 568.885543,565.974468 572.359813,556.452394 C564.767889,564.044318 555.631845,570.349475 546.753154,570.349475 C534.093625,570.349475 527.831165,559.575464 532.252433,543.093494 C526.217139,549.079576 521.115199,554.082971 518.315608,556.709747 C507.249414,567.261235 500.04352,570.349475 494.767776,570.349475 C486.275115,570.349475 482.543492,564.172995 489.749386,550.79062 C495.025129,541.139869 502.102347,527.114111 508.407504,516.562624 C512.28892,510.093597 511.128854,507.135602 508.894164,505.478913 C496.624818,517.899774 466.108101,548.608257 457.580216,556.709747 C446.385345,567.261235 439.436804,570.349475 434.032384,570.349475 C426.955166,570.349475 423.094866,566.103145 426.183106,557.095777 C415.888972,564.945055 404.179394,570.349475 391.56908,570.349475 C372.309702,570.349475 356.293464,556.662325 357.100763,533.707041 C347.212728,543.578836 337.919145,552.790148 333.793251,556.709747 C322.59838,567.261235 315.649839,570.349475 310.245419,570.349475 C301.752758,570.349475 297.892458,564.172995 305.227029,550.79062 C307.019789,547.51118 311.665397,538.867794 317.017974,528.884612 C305.446174,540.460597 293.678334,552.156166 288.88509,556.709747 C277.690219,567.261235 270.741679,570.349475 265.337258,570.349475 C256.844597,570.349475 252.984297,564.172995 260.318868,550.79062 C261.219604,548.989147 263.021078,545.77223 265.337258,541.525899 C251.568854,556.709747 235.612945,570.349475 227.248961,570.349475 C214.381293,570.349475 211.679083,556.581071 219.013654,543.07002 C224.289398,533.419269 250.15341,485.036837 250.15341,485.036837 L270.613002,484.908161 C270.613002,484.908161 252.212237,519.136157 246.67914,529.558968 C244.74899,533.033239 240.888689,541.139869 248.351937,541.139869 C255.557831,541.139869 277.304189,518.235421 285.02479,504.853046 C290.943917,493.658175 295.576278,485.036837 295.576278,485.036837 L316.03587,484.908161 C316.03587,484.908161 297.635104,519.136157 292.102007,529.558968 C290.171857,533.033239 286.697587,540.110456 287.727,541.139869 C288.756414,542.297959 291.844654,539.467073 295.190248,536.636186 C298.499964,533.849056 317.432531,515.969663 330.798667,503.149772 C336.308151,492.851692 340.484438,485.036837 340.484438,485.036837 L360.94403,484.908161 C360.94403,484.908161 342.543265,519.136157 337.010168,529.558968 C335.080018,533.033239 331.605748,540.110456 332.635161,541.139869 C333.664574,542.297959 336.752815,539.467073 340.098408,536.636186 C342.203374,534.863583 350.627639,526.986299 359.920165,518.188465 C362.624568,509.625116 367.361841,500.19837 374.583758,490.055228 C400.962477,452.996345 432.359587,443.47427 447.028728,443.47427 C475.852304,443.47427 473.922154,478.474327 452.690502,492.628762 C446.514022,496.746415 438.021361,488.253754 438.021361,488.253754 C457.451539,473.32726 460.153749,454.926495 447.286082,454.926495 C437.249301,454.926495 413.958822,468.437546 396.20144,497.261122 C378.444059,526.084698 378.058029,549.761207 399.804387,549.761207 C417.947799,549.761207 433.131647,535.092065 443.683135,522.095721 L427.98458,522.095721 C426.955166,522.095721 426.05443,521.452338 425.539723,520.551601 C425.025016,519.650864 425.025016,518.492774 425.539723,517.592037 L430.429437,509.485406 C431.330174,507.81261 433.131647,506.911873 435.061797,506.911873 L462.85596,506.911873 L472.892741,506.783196 C472.892741,506.783196 466.33023,519.136157 460.668456,529.558968 C458.866983,533.033239 455.392712,540.110456 456.422126,541.139869 C457.451539,542.297959 460.53978,539.467073 463.756696,536.636186 C467.307386,533.722799 487.863999,514.31882 501.270793,501.44057 C494.840473,496.681481 488.244813,486.744403 496.440573,476.4155 C503.90382,467.150779 515.098691,468.952253 521.403848,473.069906 C528.135347,477.388226 522.205109,485.843548 514.625939,494.104996 C514.641093,494.334986 514.652677,494.568288 514.660732,494.803022 C515.357418,495.545815 516.162473,496.193613 517.157518,496.746415 C527.065622,502.408189 539.804614,495.845678 531.183276,512.316293 C527.966359,518.492774 527.065622,519.136157 521.532525,529.558968 C519.602375,533.033239 516.256781,540.110456 517.286195,541.139869 C518.315608,542.297959 521.403848,539.467073 524.620765,536.636186 C526.850773,534.806436 535.763287,526.472041 545.396753,517.334866 C562.406937,493.133603 577.646174,484.908161 588.315721,484.908161 C595.650292,484.908161 601.054713,491.728025 602.598833,499.319949 C607.102516,490.955965 610.190757,485.036837 610.190757,485.036837 L630.650349,484.908161 C630.650349,484.908161 612.249584,519.136157 606.716486,529.558968 C604.786336,533.033239 601.312066,540.110456 602.341479,541.139869 C603.499569,542.297959 606.459133,539.467073 609.804727,536.636186 C612.034734,534.806436 620.947248,526.472041 630.580715,517.334866 C647.590898,493.133603 662.830136,484.908161 673.499683,484.908161 C680.834253,484.908161 686.238674,491.599348 687.782794,499.191272 C702.451935,471.654463 717.507107,443.47427 717.507107,443.47427 L737.838022,443.47427 C737.838022,443.47427 697.433545,519.136157 691.900448,529.558968 C689.970297,533.033239 686.496027,540.110456 687.52544,541.139869 C688.683531,542.297959 691.643094,539.467073 694.988688,536.636186 C698.403264,533.834482 717.485361,515.782264 730.833154,502.949079 C736.289436,492.750331 740.411555,485.036837 740.411555,485.036837 L760.871147,484.908161 C760.871147,484.908161 742.470382,519.136157 736.937285,529.558968 C735.007135,533.033239 731.532865,540.110456 732.562278,541.139869 C733.591691,542.297959 736.679932,539.467073 740.025525,536.636186 C742.414973,534.624019 752.947221,524.7456 763.649,514.583793 C777.633991,493.988082 794.108308,484.908161 804.878571,484.908161 C823.53669,484.908161 835.117591,502.665542 816.716826,525.698668 C805.650631,539.467073 792.91164,545.514876 781.716769,542.040606 C778.885882,541.268546 776.698379,539.853103 774.896905,538.180306 C772.709402,548.47444 777.213085,555.036951 788.27928,555.036951 C801.760265,555.036951 817.294089,543.913426 832.961536,527.394944 L855.705859,485.036837 L876.036775,485.036837 L855.062476,524.154548 C880.926488,490.441258 899.584607,484.908161 905.632411,484.908161 C915.669192,484.908161 923.518469,490.569935 913.739041,509.228053 C910.650801,515.275857 908.591974,519.136157 902.9302,529.558968 C901.128727,533.033239 897.654457,540.110456 898.68387,541.139869 C899.713283,542.297959 902.801524,539.467073 906.018441,536.636186 C909.405156,533.857342 928.263363,516.07584 941.631755,503.264245 C943.093342,500.543685 944.566639,497.804081 946.036888,495.073618 L931.110393,495.073618 C933.297897,490.955965 934.584663,488.639784 934.584663,488.639784 L949.382481,488.639784 C962.121473,464.834599 966.11045,457.886058 966.11045,457.886058 L986.570041,457.886058 C986.570041,457.886058 981.680328,466.250042 969.842073,488.639784 L985.154598,488.511108 C985.154598,488.511108 983.867831,490.955965 981.680328,495.073618 L966.367803,495.073618 C957.875142,511.029527 950.154541,525.441315 947.967038,529.558968 C946.036888,533.033239 942.562617,540.110456 943.592031,541.139869 C944.621444,542.297959 947.709685,539.467073 951.055278,536.636186 C955.270827,533.086249 989.517456,505.052376 1001.93156,494.173863 C1005.56733,485.814167 1011.47728,479.72523 1022.21348,478.989034 C1044.7319,477.444913 1021.05539,497.647152 1021.05539,497.647152 C1021.05539,497.647152 1017.83847,513.731737 1015.90832,523.382488 C1015.39362,526.599405 1014.62156,529.687645 1013.8495,532.518532 C1027.36055,526.470728 1044.08852,514.889827 1062.87531,490.441258 C1065.96355,487.867724 1065.06282,497.518475 1064.0334,499.191272 C1052.4525,516.562624 1027.1032,535.478095 1010.37523,543.584726 C1001.62521,566.103145 988.500192,570.349475 975.37517,570.349475 C967.397216,570.349475 956.073669,567.775942 958.132495,556.581071 C959.676616,547.70238 974.860464,544.742816 991.331079,540.367809 C992.617845,536.507509 993.647259,531.875148 994.805349,525.827345 C995.750589,520.52725 996.536409,514.890604 997.58802,509.430912 Z M357.727113,468.437546 C365.576391,468.437546 374.841112,462.132389 378.315382,454.283111 C381.789652,446.433834 378.315382,440 370.337428,440 C362.48815,440 353.352106,446.433834 349.749159,454.283111 C346.274889,462.132389 349.877836,468.437546 357.727113,468.437546 Z M757.65423,468.437546 C765.503508,468.437546 774.768229,462.132389 778.242499,454.283111 C781.716769,446.433834 778.242499,440 770.264545,440 C762.415267,440 753.279223,446.433834 749.676276,454.283111 C746.202006,462.132389 749.804953,468.437546 757.65423,468.437546 Z M646.220227,550.01856 C639.657716,550.01856 640.944483,538.695012 649.17979,524.797931 C657.543774,510.90085 669.639382,499.577302 676.330569,499.577302 C682.89308,499.577302 681.606313,510.90085 673.242329,524.797931 C665.007022,538.695012 652.911414,550.01856 646.220227,550.01856 L646.220227,550.01856 Z M563.995829,524.797931 C572.359813,510.90085 584.455421,499.577302 591.146608,499.577302 C597.709119,499.577302 596.422352,510.90085 588.058368,524.797931 C579.823061,538.695012 567.727453,550.01856 561.036265,550.01856 C554.473755,550.01856 555.760522,538.695012 563.995829,524.797931 Z M807.709458,499.577302 C814.271969,499.577302 807.323428,514.632474 799.088121,521.581014 C793.040317,526.599405 785.834423,531.489118 779.529266,526.599405 C779.915296,525.956021 780.301326,525.441315 780.558679,524.797931 C788.922663,510.772173 801.018271,499.577302 807.709458,499.577302 L807.709458,499.577302 Z M972.415607,559.283281 C972.930314,556.581071 978.592087,554.522244 986.055335,552.206064 C984.382538,554.779597 982.709741,556.581071 981.165621,558.639898 C977.948704,563.014905 971.51487,564.044318 972.415607,559.283281 L972.415607,559.283281 Z" id="uiGradients" sketch:type="MSShapeGroup"></path>
        </g>
    </g>
</svg>