<?xml version="1.0" encoding="UTF-8" standalone="no"?>
<svg width="144px" height="37px" viewBox="0 0 144 37" version="1.1" xmlns="http://www.w3.org/2000/svg" xmlns:xlink="http://www.w3.org/1999/xlink" xmlns:sketch="http://www.bohemiancoding.com/sketch/ns">
    <!-- Generator: Sketch 3.4 (15575) - http://www.bohemiancoding.com/sketch -->
    <title>Zomato logo</title>
    <desc>Created with Sketch.</desc>
    <defs></defs>
    <g id="Final" stroke="none" stroke-width="1" fill="none" fill-rule="evenodd" sketch:type="MSPage">
        <g id="Home" sketch:type="MSArtboardGroup" transform="translate(-70.000000, -2557.000000)">
            <g id="Zomato" sketch:type="MSLayerGroup" transform="translate(-1.000000, 2492.000000)">
                <g id="Zomato-logo" transform="translate(71.000000, 65.000000)" sketch:type="MSShapeGroup">
                    <path d="M41.7513499,12.5507837 L50.9930732,12.5507837 L41.4166949,24.795317 L41.4166949,26.2846356 L53.924772,26.2846356 L53.924772,24.3093837 L44.3209051,24.3093837 L53.924772,12.0651244 L53.924772,10.5752578 L41.7513499,10.5752578 L41.7513499,12.5507837 Z" id="Fill-1" fill="#FFFFFF"></path>
                    <g id="Group-18">
                        <path d="M69.7275993,18.5057556 C69.7275993,19.3359259 69.5969653,20.1159407 69.3377149,20.8455259 C69.0759426,21.574837 68.7132946,22.2134296 68.2480056,22.7596593 C67.7824644,23.3075333 67.2243699,23.7422148 66.5729653,24.0661704 C65.9208042,24.3901259 65.2050914,24.5529259 64.4230529,24.5529259 C63.659172,24.5529259 62.9530424,24.3901259 62.3013856,24.0661704 C61.6494767,23.7422148 61.0870949,23.3075333 60.6117184,22.7596593 C60.1370984,22.2134296 59.7643629,21.5701778 59.4950249,20.8296296 C59.2249303,20.0915481 59.0900091,19.2961852 59.0900091,18.4454593 L59.0900091,18.3848889 C59.0900091,17.5538963 59.2201387,16.7700444 59.4806501,16.0308667 C59.7416658,15.2908667 60.0995222,14.6473407 60.5562368,14.100837 C61.0116904,13.5535111 61.5654977,13.1191037 62.2169023,12.7943259 C62.8693156,12.4703704 63.5852806,12.3078444 64.3670669,12.3078444 C65.1306956,12.3078444 65.8370774,12.4703704 66.4892385,12.7943259 C67.1401387,13.1191037 67.7078165,13.5592667 68.1920196,14.1150889 C68.6757184,14.6728296 69.0532455,15.3210148 69.3228357,16.0593704 C69.5929303,16.7999185 69.7275993,17.5939111 69.7275993,18.4454593 L69.7275993,18.5057556 Z M69.8118305,12.6567407 C69.1422683,11.917563 68.3461072,11.3307704 67.4243559,10.8944444 C66.5028567,10.4594889 65.5034312,10.2421481 64.4230529,10.2421481 C63.3242648,10.2421481 62.3150039,10.4594889 61.3937569,10.8944444 C60.4717534,11.3307704 59.6771054,11.9244148 59.0065345,12.672363 C58.3367201,13.4216815 57.8149408,14.2940593 57.4429618,15.2862074 C57.0699741,16.2783556 56.8848673,17.3313481 56.8848673,18.4454593 L56.8848673,18.5057556 C56.8848673,19.6195926 57.0699741,20.6687481 57.4429618,21.6515778 C57.8149408,22.6341333 58.3367201,23.4941778 59.0065345,24.2330815 C59.6771054,24.9728074 60.4674662,25.5606963 61.3798865,25.9962 C62.2915503,26.4322519 63.2874452,26.6484963 64.3670669,26.6484963 C65.4466886,26.6484963 66.4519145,26.4322519 67.3817359,25.9962 C68.3133226,25.5606963 69.1135187,24.9686963 69.7835853,24.2182815 C70.4541562,23.469237 70.9794662,22.5976815 71.3612806,21.6055333 C71.7430949,20.612563 71.9342543,19.5592963 71.9342543,18.4454593 L71.9342543,18.3848889 C71.9342543,17.2713259 71.7471299,16.2218963 71.3743944,15.240437 C71.0036764,14.2576074 70.4824014,13.3972889 69.8118305,12.6567407 L69.8118305,12.6567407 Z" id="Fill-2" fill="#FFFFFF"></path>
                        <path d="M92.3435937,10.2420385 C91.7103468,10.2420385 91.138634,10.3234385 90.6274466,10.4848681 C90.1137373,10.6476681 89.6534921,10.8710385 89.2436848,11.153883 C88.8348862,11.4370015 88.4664378,11.77192 88.1406095,12.1558978 C87.816042,12.5409719 87.5227461,12.9468756 87.2612259,13.3716904 C86.8715937,12.4804015 86.2938284,11.7354681 85.5304518,11.1377126 C84.7675797,10.5405052 83.7991734,10.2420385 82.6264939,10.2420385 C82.0124133,10.2420385 81.4729807,10.3234385 81.0076918,10.4848681 C80.542655,10.6476681 80.1232644,10.8647348 79.7507811,11.1377126 C79.3785499,11.4112385 79.0479299,11.731357 78.7606865,12.0947793 C78.4711734,12.4595719 78.206627,12.8347793 77.9650298,13.218757 L77.9650298,10.5753126 L75.813352,10.5753126 L75.813352,26.2846904 L77.9650298,26.2846904 L77.9650298,17.340557 C77.9650298,16.6139867 78.0654011,15.9510015 78.2714396,15.3546163 C78.475965,14.7587793 78.7606865,14.2385867 79.1223257,13.7937644 C79.4864869,13.3483941 79.9094081,13.0055274 80.3936112,12.7640681 C80.8768056,12.5212385 81.4069072,12.3981793 81.9836637,12.3981793 C83.1384378,12.3981793 84.0455622,12.8081941 84.7085674,13.6276756 C85.3682942,14.4466089 85.6976532,15.5927867 85.6976532,17.0673052 L85.6976532,26.2846904 L87.8195727,26.2846904 L87.8195727,17.2498385 C87.8195727,16.481883 87.9257443,15.7953274 88.1406095,15.1879793 C88.3554746,14.5820015 88.643979,14.0724978 89.0068792,13.6567274 C89.3697793,13.2431496 89.7929527,12.930157 90.2781646,12.7180237 C90.761359,12.5039719 91.2722942,12.3981793 91.8127356,12.3981793 C92.9864238,12.3981793 93.901366,12.8081941 94.5631103,13.6276756 C95.2230893,14.4466089 95.5534571,15.6130681 95.5534571,17.1278756 L95.5534571,26.2846904 L97.7041261,26.2846904 L97.7041261,16.5619126 C97.7041261,14.5981719 97.2295061,13.0515719 96.2802662,11.9270459 C95.3310263,10.8041644 94.0178774,10.2420385 92.3435937,10.2420385" id="Fill-4" fill="#FFFFFF"></path>
                        <path d="M111.888,20.5026867 C111.888,21.1267533 111.760897,21.6962793 111.511734,22.2107163 C111.261562,22.723783 110.918585,23.1675089 110.481289,23.5399756 C110.046767,23.9135385 109.540623,24.2004941 108.965632,24.4024867 C108.390893,24.603383 107.768238,24.7039681 107.101702,24.7039681 C106.617499,24.7039681 106.159776,24.6338052 105.723489,24.4934793 C105.286949,24.3515089 104.902109,24.1503385 104.568967,23.8883237 C104.233555,23.6252126 103.970018,23.2985163 103.775075,22.9049459 C103.580385,22.5113756 103.48304,22.0731311 103.48304,21.5910348 L103.48304,21.5301904 C103.48304,20.5824422 103.848715,19.8218867 104.582081,19.2474274 C105.314942,18.6726941 106.348918,18.3846422 107.685016,18.3846422 C108.576,18.3846422 109.363839,18.4553533 110.05055,18.5965015 C110.736504,18.7381978 111.348315,18.8892126 111.888,19.0489978 L111.888,20.5026867 Z M107.81111,10.3331681 C106.750151,10.3331681 105.809233,10.4559533 104.990879,10.7023459 C104.171517,10.9498348 103.361485,11.2784496 102.561541,11.6892867 L103.204119,13.6141089 C103.87469,13.2690496 104.558375,12.99662 105.256434,12.7940793 C105.953737,12.5912644 106.729975,12.489583 107.587671,12.489583 C108.945709,12.489583 109.998095,12.8475237 110.742053,13.5617607 C111.487019,14.2762719 111.859503,15.3287163 111.859503,16.7169015 L111.859503,17.2000941 C111.208098,16.9975533 110.542319,16.8342052 109.862669,16.7133385 C109.182263,16.5916496 108.377527,16.5310793 107.44821,16.5310793 C106.535033,16.5310793 105.703566,16.6429015 104.948764,16.8657237 C104.195475,17.08882 103.543061,17.4114052 102.994802,17.8384126 C102.446039,18.2635015 102.020848,18.7952052 101.724778,19.4343459 C101.426942,20.07102 101.277898,20.8151311 101.277898,21.6661311 L101.277898,21.7264274 C101.277898,22.5368644 101.430725,23.2453459 101.738144,23.8535163 C102.045814,24.4611385 102.450578,24.9728348 102.952939,25.387783 C103.455047,25.8032793 104.032308,26.1118867 104.682452,26.3141533 C105.335874,26.5166941 105.996609,26.6183756 106.665163,26.6183756 C107.931405,26.6183756 108.988581,26.3495089 109.834676,25.81342 C110.682032,25.2776052 111.357142,24.6540867 111.859503,23.944783 L111.859503,26.2848274 L113.981422,26.2848274 L113.981422,16.6826422 C113.981422,14.69862 113.478305,13.1575015 112.473331,12.0650422 C111.411363,10.9103681 109.858634,10.3331681 107.81111,10.3331681 L107.81111,10.3331681 Z" id="Fill-6" fill="#FFFFFF"></path>
                        <path d="M121.436209,5.83717481 L119.284783,5.83717481 L119.284783,10.5753674 L117.27534,10.5753674 L117.27534,12.6416119 L119.284783,12.6416119 L119.284783,22.1223822 C119.284783,22.9114415 119.387676,23.5908711 119.592958,24.1568341 C119.797484,24.7249896 120.081196,25.1859822 120.444853,25.5400859 C120.808006,25.8939156 121.24051,26.1529156 121.741862,26.3140711 C122.245232,26.476597 122.783908,26.5582711 123.36369,26.5582711 C123.883957,26.5582711 124.353785,26.5020859 124.772167,26.3905378 C125.191557,26.28036 125.586738,26.1118044 125.959473,25.8898044 L125.959473,23.8846785 C125.586738,24.0765304 125.237204,24.2100044 124.912636,24.2856489 C124.585799,24.3634859 124.237526,24.4004859 123.865042,24.4004859 C123.13899,24.4004859 122.552902,24.2089081 122.105771,23.8241081 C121.658892,23.4409526 121.436209,22.7639896 121.436209,21.7943156 L121.436209,12.6416119 L126.015459,12.6416119 L126.015459,10.5753674 L121.436209,10.5753674 L121.436209,5.83717481 Z" id="Fill-8" fill="#FFFFFF"></path>
                        <path d="M141.761821,18.5057556 C141.761821,19.3359259 141.631187,20.1159407 141.370172,20.8455259 C141.10966,21.574837 140.74676,22.2134296 140.281723,22.7596593 C139.816434,23.3075333 139.257835,23.7422148 138.605422,24.0661704 C137.954018,24.3901259 137.238053,24.5529259 136.455762,24.5529259 C135.693898,24.5529259 134.986004,24.3901259 134.334851,24.0661704 C133.682438,23.7422148 133.120056,23.3075333 132.645436,22.7596593 C132.170816,22.2134296 131.798081,21.5701778 131.528995,20.8296296 C131.258648,20.0915481 131.123979,19.2961852 131.123979,18.4454593 L131.123979,18.3848889 C131.123979,17.5538963 131.254865,16.7700444 131.515377,16.0308667 C131.775131,15.2908667 132.13324,14.6473407 132.589954,14.100837 C133.045408,13.5535111 133.599468,13.1191037 134.25062,12.7943259 C134.902025,12.4703704 135.618242,12.3078444 136.40028,12.3078444 C137.163657,12.3078444 137.871047,12.4703704 138.523461,12.7943259 C139.173604,13.1191037 139.742039,13.5592667 140.226242,14.1150889 C140.709436,14.6728296 141.086711,15.3210148 141.356049,16.0593704 C141.626396,16.7999185 141.761821,17.5939111 141.761821,18.4454593 L141.761821,18.5057556 Z M143.409121,15.240437 C143.03689,14.2576074 142.515363,13.3972889 141.845044,12.6567407 C141.175482,11.917563 140.380077,11.3307704 139.458326,10.8944444 C138.536827,10.4594889 137.535888,10.2421481 136.455762,10.2421481 C135.35773,10.2421481 134.348217,10.4594889 133.426466,10.8944444 C132.505975,11.3307704 131.710571,11.9244148 131.040757,12.672363 C130.370438,13.4216815 129.848154,14.2940593 129.477436,15.2862074 C129.104196,16.2783556 128.917828,17.3313481 128.917828,18.4454593 L128.917828,18.5057556 C128.917828,19.6195926 129.104196,20.6687481 129.477436,21.6515778 C129.848154,22.6341333 130.370438,23.4941778 131.040757,24.2330815 C131.710571,24.9728074 132.500932,25.5606963 133.414109,25.9962 C134.325268,26.4322519 135.322172,26.6484963 136.40028,26.6484963 C137.480406,26.6484963 138.48538,26.4322519 139.41621,25.9962 C140.347545,25.5606963 141.147741,24.9686963 141.817303,24.2182815 C142.486613,23.469237 143.012932,22.5976815 143.394998,21.6055333 C143.775804,20.612563 143.966963,19.5592963 143.966963,18.4454593 L143.966963,18.3848889 C143.966963,17.2713259 143.781856,16.2218963 143.409121,15.240437 L143.409121,15.240437 Z" id="Fill-10" fill="#FFFFFF"></path>
                        <path d="M16.9497331,13.0593281 C16.1659292,13.0593281 15.4628259,13.1494985 14.8605982,13.3273726 C14.2414739,13.51018 13.6967454,13.7414985 13.2221254,13.9936467 L13.2221254,13.9941948 C13.1043531,14.0550393 13.0226438,14.1852244 13.0226438,14.3365133 C13.0226438,14.5459059 13.1790011,14.7155578 13.3716736,14.7155578 C13.4246333,14.7155578 13.4745667,14.7024022 13.5194564,14.67938 L13.5197086,14.67938 C13.5204651,14.6791059 13.5212217,14.6785578 13.5219783,14.6782837 C13.5355965,14.6711578 13.5489625,14.6632096 13.561572,14.6544393 C14.3274704,14.1915281 15.5503356,13.6039133 17.3305387,13.5504689 C19.386889,13.4208319 21.5133478,13.8346837 21.5133478,13.8346837 C20.5101394,13.5208689 18.7311972,13.0593281 16.9497331,13.0593281" id="Fill-12" fill="#CB202D"></path>
                        <path d="M16.9497331,13.0593281 C16.1659292,13.0593281 15.4628259,13.1494985 14.8605982,13.3273726 C14.2414739,13.51018 13.6967454,13.7414985 13.2218732,13.9936467 L13.2221254,13.9941948 C13.1043531,14.0550393 13.0226438,14.1852244 13.0226438,14.3365133 C13.0226438,14.5459059 13.1790011,14.7155578 13.3716736,14.7155578 C13.4246333,14.7155578 13.4745667,14.7024022 13.5194564,14.67938 L13.5197086,14.67938 C13.5204651,14.6791059 13.5212217,14.6785578 13.5219783,14.6782837 C13.5355965,14.6711578 13.5489625,14.6632096 13.561572,14.6544393 C14.3274704,14.1915281 15.5503356,13.6039133 17.3305387,13.5504689 C19.386889,13.4208319 21.5133478,13.8346837 21.5133478,13.8346837 C20.5101394,13.5208689 18.7311972,13.0593281 16.9497331,13.0593281" id="Fill-14" fill="#CB202D"></path>
                        <path d="M29.5061296,0 L4.53940455,0 C2.03239229,0 0,2.20876296 0,4.93333333 L0,17.4149407 C4.07714186,17.6426963 5.00418914,17.5454 6.22730648,17.3809556 C7.47967776,17.2118519 9.16783187,15.196037 9.16783187,15.196037 C9.16783187,15.196037 10.7190473,12.598363 14.4143748,11.507 C18.1104588,10.415637 22.9484553,12.3478593 22.9484553,12.3478593 C28.7541016,14.5958148 28.8822137,18.3330889 28.8822137,18.3330889 L28.8822137,18.6669111 C28.8822137,18.6669111 28.7541016,22.4022667 22.9494641,24.6502222 C22.9494641,24.6502222 18.1084413,26.5838148 14.4121051,25.4924519 C10.7162732,24.4010889 9.16934501,21.8031407 9.16934501,21.8031407 C9.16934501,21.8031407 7.47841681,19.7870519 6.22579335,19.6195926 C5.00343257,19.4548741 4.07688967,19.3556593 0,19.5845111 L0,32.0666667 C0,34.791237 2.03239229,37 4.53940455,37 L29.5061296,37 C32.0131419,37 34.0455342,34.791237 34.0455342,32.0666667 L34.0455342,4.93333333 C34.0455342,2.20876296 32.0131419,0 29.5061296,0" id="Fill-16" fill="#FFFFFF"></path>
                    </g>
                </g>
            </g>
        </g>
    </g>
</svg>