<svg xmlns="http://www.w3.org/2000/svg" viewBox="0 0 53 20">
  <defs/>
  <path fill="inherit" fill-rule="nonzero" d="M43.584 19.15c5.034 0 9.13-4.123 9.13-9.19 0-5.07-4.096-9.19-9.13-9.19-5.035 0-9.13 4.12-9.13 9.19 0 5.067 4.095 9.19 9.13 9.19zm0-12.467c1.794 0 3.255 1.47 3.255 3.276 0 1.806-1.462 3.274-3.256 3.274-1.795 0-3.254-1.468-3.254-3.275 0-1.808 1.46-3.277 3.254-3.277l.001.002zM9.138 19.15c5.034 0 9.13-4.123 9.13-9.19 0-5.07-4.096-9.19-9.13-9.19C4.105.77.008 4.89.008 9.96c0 5.067 4.097 9.19 9.13 9.19zm0-12.467c1.795 0 3.255 1.47 3.255 3.276 0 1.806-1.46 3.274-3.255 3.274-1.794 0-3.253-1.468-3.253-3.275 0-1.808 1.46-3.277 3.253-3.277v.002zm17.218-.207L23.553.89H16.99l6.13 12.22v5.753h6.473V13.11L35.723.89h-6.566l-2.8 5.586h-.001z"/>
</svg>
