<svg xmlns="http://www.w3.org/2000/svg" viewBox="0 0 129 29">
  <defs/>
  <path fill-rule="evenodd" d="M14.151 0c7.814 0 14.15 6.336 14.149 14.15 0 7.812-6.336 14.15-14.149 14.15C6.335 28.3 0 21.963 0 14.15 0 6.336 6.336 0 14.151 0zm0 1.094c-7.199 0-13.057 5.857-13.057 13.056 0 7.199 5.858 13.056 13.057 13.056 7.197 0 13.055-5.857 13.055-13.056 0-7.199-5.858-13.056-13.055-13.056zM9.276 18.31l9.763 6.61c-4.891 2.006-8.306.543-8.444.483l-.004-.002-1.315-7.091zm-1.583-4.67l2.189 11.587c-4.873-2.058-6.24-5.514-6.292-5.652l-.002-.004 4.105-5.931zm17.685 4.693c-2.057 4.875-5.514 6.242-5.652 6.294l-.004.002-5.93-4.107 11.586-2.189zM41.27 9.32c1.98 0 3.165.66 4.14 1.62l-1.47 1.695c-.81-.735-1.635-1.185-2.685-1.185-1.77 0-3.045 1.47-3.045 3.27v.03c0 1.8 1.245 3.3 3.045 3.3 1.2 0 1.935-.48 2.76-1.23l1.47 1.485c-1.08 1.155-2.28 1.875-4.305 1.875-3.09 0-5.385-2.385-5.385-5.4v-.03c0-2.985 2.25-5.43 5.475-5.43zm9.435.03c1.53 0 2.835.48 3.9 1.335l-1.2 1.74c-.93-.645-1.845-1.035-2.73-1.035s-1.35.405-1.35.915v.03c0 .69.45.915 2.265 1.38 2.13.555 3.33 1.32 3.33 3.15v.03c0 2.085-1.59 3.255-3.855 3.255a6.682 6.682 0 01-4.455-1.68l1.365-1.635c.945.78 1.935 1.275 3.135 1.275.945 0 1.515-.375 1.515-.99v-.03c0-.585-.36-.885-2.115-1.335-2.115-.54-3.48-1.125-3.48-3.21v-.03c0-1.905 1.53-3.165 3.675-3.165zm9.6 0c1.53 0 2.835.48 3.9 1.335l-1.2 1.74c-.93-.645-1.845-1.035-2.73-1.035s-1.35.405-1.35.915v.03c0 .69.45.915 2.265 1.38 2.13.555 3.33 1.32 3.33 3.15v.03c0 2.085-1.59 3.255-3.855 3.255a6.682 6.682 0 01-4.455-1.68l1.365-1.635c.945.78 1.935 1.275 3.135 1.275.945 0 1.515-.375 1.515-.99v-.03c0-.585-.36-.885-2.115-1.335-2.115-.54-3.48-1.125-3.48-3.21v-.03c0-1.905 1.53-3.165 3.675-3.165zm64.38 0c1.53 0 2.835.48 3.9 1.335l-1.2 1.74c-.93-.645-1.845-1.035-2.73-1.035s-1.35.405-1.35.915v.03c0 .69.45.915 2.265 1.38 2.13.555 3.33 1.32 3.33 3.15v.03c0 2.085-1.59 3.255-3.855 3.255a6.682 6.682 0 01-4.455-1.68l1.365-1.635c.945.78 1.935 1.275 3.135 1.275.945 0 1.515-.375 1.515-.99v-.03c0-.585-.36-.885-2.115-1.335-2.115-.54-3.48-1.125-3.48-3.21v-.03c0-1.905 1.53-3.165 3.675-3.165zm-50.16.15v2.1H68.84v2.235h5.01v2.1h-5.01V20h-2.31V9.5h7.995zm4.26 0V20h-2.31V9.5h2.31zm4.935 0v8.4h5.235V20H81.41V9.5h2.31zm14.925 0v2.13H95.45V20h-2.31v-8.37h-3.195V9.5h8.7zm9.69 0v2.055h-5.625v2.13h4.95v2.055h-4.95v2.205h5.7V20h-7.995V9.5h7.92zm6.93 0c1.335 0 2.37.375 3.06 1.065.585.585.9 1.41.9 2.4v.03c0 1.695-.915 2.76-2.25 3.255L119.54 20h-2.7l-2.25-3.36h-1.815V20h-2.31V9.5zM9.757 9.316l-6.612 9.763c-2.007-4.891-.543-8.306-.483-8.444l.002-.004 7.093-1.315zm15.314-.139c2.007 4.891.545 8.306.485 8.443l-.002.004-7.093 1.316 6.61-9.763zM18.333 3.03c4.874 2.057 6.24 5.513 6.293 5.65l.002.005-4.106 5.93L18.333 3.03zm96.737 8.555h-2.295V14.6h2.34c1.125 0 1.77-.6 1.77-1.485v-.03c0-.99-.69-1.5-1.815-1.5zM17.62 2.853l.004.002 1.317 7.092-9.764-6.61c4.892-2.008 8.305-.544 8.443-.484zm-9.125.775l5.929 4.104-11.585 2.19c2.1-4.972 5.656-6.294 5.656-6.294z"/>
</svg>
