<svg xmlns="http://www.w3.org/2000/svg" viewBox="0 0 130 21">
  <defs/>
  <path d="M11.6.034c2.524 0 4.836.908 6.622 2.412l2.27-1.788 1.978 2.515-2.15 1.694a10.063 10.063 0 011.52 5.333c0 5.617-4.588 10.166-10.24 10.166a10.247 10.247 0 01-7.219-2.956l-1.705 1.342-1.98-2.514 1.786-1.406A10.062 10.062 0 011.36 10.2C1.36 4.583 5.948.034 11.6.034zm116.702 7.877c.967 2.038 1.022 4.152.043 6.195-.91 1.9-3.14 2.437-4.927 1.293-.03-.02-.065-.028-.157-.067 0 .735-.028 1.44.01 2.142.024.408-.1.625-.486.79-.691.297-1.355.653-2.07 1.004V6.318h2.516l.054.465c.055-.022.106-.03.14-.059 1.445-1.173 3.984-.695 4.877 1.187zM17.782 6.864L6.925 15.408a7.055 7.055 0 004.675 1.758c3.891 0 7.04-3.122 7.04-6.966a6.877 6.877 0 00-.858-3.336zm44.964-.058c.766.511 1.211 1.22 1.257 2.116.03.573.04 1.148.044 1.722l.005 1.725c.006 1.122.001 2.245.001 3.406h-2.54l-.034-.526c-.204.122-.381.246-.574.341-1.404.688-2.755.497-3.952-.412-1.142-.867-1.397-2.116-1.067-3.447.293-1.189 1.196-1.813 2.346-2.099 1.086-.27 2.173-.283 3.236.15.099-1.076-.37-1.57-1.428-1.586-.896-.015-1.722.219-2.532.643l-.987-1.765c.89-.51 1.796-.87 2.797-.942 1.202-.086 2.377-.027 3.428.674zm-25.857.248l-.782 1.9c-.713-.21-1.379-.448-2.064-.593-.437-.093-.904-.073-1.356-.057-.292.01-.599.1-.663.45-.066.359.202.528.476.634.835.32 1.682.613 2.52.925.66.245 1.274.567 1.687 1.156 1.055 1.5.406 3.608-1.37 4.181-2.12.684-4.16.34-6.137-.75l.83-1.876c.79.24 1.533.523 2.304.678.546.11 1.129.069 1.693.05.33-.01.575-.208.618-.556.04-.318-.148-.535-.426-.638-.708-.264-1.437-.475-2.137-.756-.558-.224-1.129-.46-1.62-.795-.933-.638-1.083-1.611-.94-2.64.14-.997.792-1.586 1.706-1.923 1.688-.623 4.08-.369 5.66.61zm44.938.936c.058.085.084.284.03.338-.511.517-1.044 1.014-1.575 1.522-.22-.232-.436-.494-.686-.719-1.216-1.091-2.807-.671-3.296.876a3.333 3.333 0 00.022 2.138c.477 1.364 1.874 1.828 3.096 1.025.343-.227.639-.525.987-.816L82 13.842c-1.614 2.325-4.124 2.61-6.015 1.624-1.485-.773-2.202-2.102-2.39-3.7-.175-1.501.114-2.908 1.113-4.119 1.601-1.941 5.258-2.331 7.118.343zm-34.94.001c.097.14.146.24-.005.382-.512.483-1.014.977-1.54 1.486-.228-.239-.451-.504-.707-.733-1.203-1.08-2.78-.674-3.278.855a3.331 3.331 0 00.093 2.382c.495 1.172 1.857 1.553 2.989.822.355-.23.66-.538 1.012-.83l1.578 1.47c-1.655 2.619-4.963 2.717-6.817 1.088-2.118-1.863-2.163-5.688-.114-7.627 1.65-1.562 4.997-1.854 6.788.705zm70.207-1.173c.741.498 1.17 1.186 1.236 2.05.064.846.048 1.698.053 2.547.007 1.312.002 2.624.002 3.936v.42h-2.546l-.03-.545c-.582.428-1.186.7-1.889.751-1.833.133-3.42-.968-3.757-2.633-.366-1.808.6-3.298 2.42-3.72 1.08-.25 2.152-.267 3.223.158.066-1.108-.392-1.6-1.456-1.576-.427.01-.862.05-1.276.149-.413.098-.804.287-1.25.453l-.973-1.732c.847-.487 1.711-.843 2.669-.928 1.253-.112 2.478-.066 3.574.67zm-47.33-4.195V6.29h2.28V8.67H69.81c-.017.084-.039.142-.039.2 0 1.25-.01 2.499.01 3.747.012.775.58 1.145 1.32.853.342-.135.645-.368 1.013-.584-.12.823-.234 1.619-.356 2.414a.285.285 0 01-.115.179c-.927.575-2.77.867-3.755-.323-.361-.436-.609-.934-.632-1.496-.043-1.047-.044-2.096-.056-3.145-.007-.597-.001-1.195-.001-1.836h-1.58V6.302h1.58c0-.715.01-1.398-.006-2.08-.006-.255.06-.402.312-.515l.627-.295 1.242-.616c.109-.054.222-.099.39-.173zm36.507 3.728c.835.266 1.326.93 1.56 1.721.205.688.36 1.413.381 2.126.054 1.798.02 3.599.02 5.398 0 .049-.009.097-.016.168h-2.541v-.449c-.007-1.687-.012-3.374-.022-5.061a2.9 2.9 0 00-.056-.52c-.187-.988-.849-1.422-1.846-1.208-.466.1-.83.36-.93.833a7.78 7.78 0 00-.18 1.48c-.023 1.499-.009 2.999-.009 4.499v.427h-2.546v-.39c0-1.512.012-3.025-.007-4.537a6.544 6.544 0 00-.158-1.409c-.15-.637-.615-.931-1.33-.94-.74-.008-1.225.28-1.382.92-.112.455-.15.936-.157 1.406-.018 1.512-.007 3.024-.007 4.537v.418h-2.538V6.32h2.51l.054.54c.714-.663 1.546-.811 2.447-.752.912.06 1.646.442 2.224 1.15.28-.205.531-.413.806-.584 1.182-.734 2.447-.73 3.723-.324zM86.407 2.6v4.237c.171-.11.297-.2.431-.275 1.134-.625 2.308-.624 3.468-.123.99.427 1.432 1.312 1.662 2.288.136.579.2 1.184.21 1.78.027 1.673.01 3.348.01 5.023 0 .072-.009.144-.014.236h-2.556v-.41c0-1.574.002-3.149-.005-4.723a5.241 5.241 0 00-.07-.819c-.184-1.13-1.22-1.663-2.276-1.177-.675.31-.827.922-.837 1.562-.028 1.699-.018 3.398-.023 5.098v.466h-2.551c-.006-.12-.017-.24-.017-.361-.001-3.724.003-7.448-.008-11.171 0-.279.086-.418.339-.535.728-.337 1.442-.704 2.237-1.096zM54.808 6.472c.284.167.408.337.295.686-.215.663-.377 1.342-.573 2.058-.107-.062-.183-.115-.266-.153-.295-.136-.58-.332-.89-.389-1.143-.206-1.88.407-1.9 1.59-.028 1.675-.016 3.35-.021 5.024v.471H48.91V6.32h2.514l.054.511.257-.191a2.825 2.825 0 013.072-.167zm58.803 5.032c-.629.08-.968.541-.956 1.114.012.593.38 1.032.976 1.166a2.12 2.12 0 001.471-.187c.47-.243.866-.548.723-1.097 0-.754-.008-.821-.679-.947a5.046 5.046 0 00-1.535-.049zm-54.281-.015c-.653.077-1.01.53-1.007 1.115.003.602.381 1.055 1 1.185a2.135 2.135 0 001.502-.22c.442-.242.801-.544.669-1.062 0-.758-.022-.835-.7-.962a4.93 4.93 0 00-1.464-.056zm65.08-2.97c-.682.091-1.149.61-1.149 1.276v1.2c0 .512-.003 1.025.003 1.537.001.108.001.243.061.32.439.557 1.042.785 1.737.732.658-.051 1.005-.498 1.164-1.079a4.994 4.994 0 00-.06-2.916c-.267-.82-.894-1.186-1.755-1.07zM11.6 3.234c-3.891 0-7.04 3.122-7.04 6.966 0 .919.18 1.796.507 2.6l10.561-8.313A7.058 7.058 0 0011.6 3.234z"/>
</svg>
