<svg xmlns="http://www.w3.org/2000/svg" viewBox="0 0 82 31">
  <defs/>
  <path d="M7.19 30.336c4.536 0 6.888-2.688 6.888-7.392V13.62H7.61v4.2h2.1v5.418c0 2.1-.924 2.856-2.394 2.856-1.47 0-2.394-.756-2.394-2.856V7.362c0-2.1.924-2.898 2.394-2.898 1.47 0 2.394.798 2.394 2.898v3.15h4.368V7.656c0-4.704-2.352-7.392-6.888-7.392S.302 2.952.302 7.656v15.288c0 4.704 2.352 7.392 6.888 7.392zM21.68 30V17.4h5.25V30h4.704V.6H26.93v12.6h-5.25V.6h-4.62V30h4.62zm19.95.336c4.536 0 7.014-2.688 7.014-7.392V7.656c0-4.704-2.478-7.392-7.014-7.392s-7.014 2.688-7.014 7.392v15.288c0 4.704 2.478 7.392 7.014 7.392zm0-4.2c-1.47 0-2.394-.798-2.394-2.898V7.362c0-2.1.924-2.898 2.394-2.898 1.47 0 2.394.798 2.394 2.898v15.876c0 2.1-.924 2.898-2.394 2.898zm16.17 4.2c4.536 0 6.888-2.688 6.888-7.392 0-8.4-9.03-9.534-9.03-15.582 0-2.1.84-2.898 2.31-2.898 1.47 0 2.31.798 2.31 2.898V8.58h4.368v-.924c0-4.704-2.31-7.392-6.804-7.392s-6.804 2.688-6.804 7.392c0 8.4 9.03 9.534 9.03 15.582 0 2.1-.924 2.856-2.394 2.856-1.47 0-2.394-.756-2.394-2.856v-2.1h-4.368v1.806c0 4.704 2.352 7.392 6.888 7.392zM71.954 30V17.4h5.25V30h4.704V.6h-4.704v12.6h-5.25V.6h-4.62V30h4.62z"/>
</svg>
