<?xml version="1.0" standalone="no"?>
<!DOCTYPE svg PUBLIC "-//W3C//DTD SVG 20010904//EN"
 "http://www.w3.org/TR/2001/REC-SVG-20010904/DTD/svg10.dtd">
<svg version="1.0" xmlns="http://www.w3.org/2000/svg"
 width="260.000000pt" height="260.000000pt" viewBox="0 0 260.000000 260.000000"
 preserveAspectRatio="xMidYMid meet">
<metadata>
Created by potrace 1.11, written by Peter Selinger 2001-2013
</metadata>
<g transform="translate(0.000000,260.000000) scale(0.100000,-0.100000)"
fill="#000000" stroke="none">
<path d="M1131 2590 c-556 -78 -987 -483 -1107 -1041 -26 -118 -26 -380 0
-498 59 -273 167 -474 360 -667 193 -193 394 -301 667 -360 118 -26 380 -26
498 0 273 59 474 167 667 360 193 193 301 394 360 667 14 62 18 127 18 249 0
122 -4 187 -18 249 -59 273 -167 474 -360 667 -190 189 -384 296 -646 355 -99
23 -340 33 -439 19z m389 -541 c151 -38 286 -125 387 -249 56 -69 66 -105 36
-132 -41 -37 -258 -168 -277 -168 -13 0 -48 26 -84 61 -40 38 -88 72 -130 92
-175 82 -384 2 -474 -181 -30 -60 -33 -75 -33 -157 0 -80 3 -97 31 -155 38
-81 100 -143 180 -181 75 -36 141 -45 219 -29 98 20 195 84 195 129 0 7 -44
11 -135 11 -181 0 -175 -6 -175 179 0 133 1 141 22 155 19 14 73 16 380 16
441 0 403 17 396 -174 -4 -109 -10 -145 -33 -215 -71 -210 -254 -388 -470
-457 -122 -39 -228 -50 -340 -36 -272 34 -492 188 -611 427 -60 121 -77 207
-71 360 7 208 67 344 217 496 168 170 365 246 605 232 50 -3 124 -14 165 -24z"/>
</g>
</svg>
