<?xml version="1.0" standalone="no"?>
<!DOCTYPE svg PUBLIC "-//W3C//DTD SVG 20010904//EN"
 "http://www.w3.org/TR/2001/REC-SVG-20010904/DTD/svg10.dtd">
<svg version="1.0" xmlns="http://www.w3.org/2000/svg"
 width="260.000000pt" height="260.000000pt" viewBox="0 0 260.000000 260.000000"
 preserveAspectRatio="xMidYMid meet">
<metadata>
Created by potrace 1.11, written by Peter Selinger 2001-2013
</metadata>
<g transform="translate(0.000000,260.000000) scale(0.100000,-0.100000)"
fill="#000000" stroke="none">
<path d="M0 1300 l0 -1300 1300 0 1300 0 0 1300 0 1300 -1300 0 -1300 0 0
-1300z m1394 810 c187 -27 276 -129 297 -339 6 -54 9 -120 7 -147 l-3 -49
-117 -3 -118 -3 0 99 c0 144 -21 193 -89 212 -53 14 -107 -3 -132 -43 -19 -31
-19 -50 -17 -524 l3 -493 27 -27 c23 -22 36 -27 82 -27 44 -1 59 4 80 23 38
36 46 79 46 249 l0 152 -55 0 -55 0 0 115 0 115 173 -2 172 -3 3 -225 c5 -370
-17 -480 -111 -571 -63 -60 -132 -83 -252 -83 -55 0 -118 5 -141 12 -61 18
-129 68 -164 120 -59 90 -60 96 -60 653 0 480 1 510 20 572 42 136 144 207
325 226 6 0 41 -4 79 -9z"/>
</g>
</svg>
