<svg xmlns="http://www.w3.org/2000/svg" width="64" height="34">
  <defs/>
  <path fill-rule="evenodd" d="M56.413 24.645c.114 1.262 1.062 2.27 1.062 2.27s-.49.308-1.52.839c-7.85 4.05-16.216 6.007-25.004 6.244-2.641.028-5.234-.2-7.706-1.21-.824-.337-1.584-.782-2.24-1.388-1.424-1.317-1.128-5.105 1.54-6.103.026 2.52 7.201 4.22 9.932 4.405 6.823.46 13.478-.356 19.833-3.03 1.147-.483 2.252-1.073 3.352-1.66.31-.164.75-.367.75-.367zM16.098.735c2.95 1.929 3.128 6.272-.162 7.112.662-1.352-3.061-6.683-8.931-.37-3.772 4.059-4.229 12.004-1.628 14.541 2.076 2.026 6.445-4.953 6.935-8.438.28-1.995 5.456-2.293 4.858-.459-2.282 3.762-2.478 9.71-1.152 13.06.242.573.552 1.129.95 1.662.378.508.296.955-.078 1.409-.91 1.104-2.292 1.272-3.3.47l-.001.005-.034-.034a2.744 2.744 0 01-.486-.52c-1.054-1.473-1.473-3.09-1.585-4.774-.141-1.604.013-3.228.457-4.475-3.07 5.188-7.774 8.207-10.898 1.91-1.672-3.37-1.812-11.79 3.212-17.355C8.708-.453 13.998-.637 16.098.736zm40.089 6.263c-2.057 4.014-3.652 10.84-3.379 12.137 0 0 1.91-4.18 4.848-5.12 1.927-.616 2.403.592 2.388 2.133-.01 1.127-.31 2.43-.446 3.335-.148.989-.116 1.8.037 2.46l-.002.002c.044.172.097.344.163.514.34.87.915 1.494 1.944 1.71.021-.525-.829-.805-.629-1.335.18-.477 1.229-.087 1.653.066 1.141.41 1.527 1.5 1.011 2.596-1.023 2.176-4.205 2.49-5.746.557a4.923 4.923 0 01-.953-1.97c-.187-.68-.256-1.528-.166-2.57l.007-.09c-.003-.324.02-.975.038-.977-.024-1.534-.536-1.507-.833-1.485-1.698.122-3.364 5.993-3.951 6.336-.588.343-2.025.543-2.286-.741-.119-.608-.125-1.62-.037-2.886-1.092 2.394-2.844 3.803-5.589 3.59-1.797-.012-3.767-.729-3.764-2.884 0-.965 1.677-1.895 2.38-1.33-.833 1.422 1.765 3.1 2.446 1.187.518-1.454-.795-3.115-1.874-4.202-.856 1.41-2.03 2.232-3.231 2.576-1.06.41-3.576.327-4.68-1.437a3.21 3.21 0 01-.433-.94c-1.02-3.712 5.29-7.521 4.604-1.119a16.65 16.65 0 01-.328 1.976c1.192-.273 2.396-1.307 2.968-2.274-.366-1.39 1.36-5.029 4.957-3.119-1.561 1.01-1.817 2.777-.93 3.757 1.488 1.646 1.976 3.274 1.789 4.615 1.149-1.542 1.903-3.669 2.277-5.231.552-3.387 1.417-7.168 2.429-10.035.541-1.534 3.574-.3 3.318.198zm-31.708 0c-2.155 3.83-3.652 10.84-3.379 12.137 0 0 1.91-4.18 4.849-5.12 4.564-1.46.032 7.484 1.632 7.911.407.11 1.034-.418 1.684-1.202.156-3.86 3.458-8.443 6.034-5.796-2.233-.396-3.994 8.233-1.372 8.163 1.077-.028 1.935-1.062 2.546-2.27.486.31 1.27.542 2.124.59-2.287 4.93-7.11 4.607-8.686 2.139a3.868 3.868 0 01-.446-.997c-1.188 1.523-2.506 2.744-3.663 2.744-.793 0-.996-.646-.996-1.567 0-1.284.493-4.833-.392-4.77-1.698.123-3.363 5.994-3.951 6.337-.588.343-2.024.543-2.286-.741-.49-2.522.95-11.99 2.984-17.756.541-1.534 4.038-1.08 3.318.198zM37.55 17.11c-.099-.844-1.369-1.266-.977 0 .194.627.455 1.086.76 1.41.17-.655.245-1.184.218-1.41z"/>
</svg>
