<svg xmlns="http://www.w3.org/2000/svg" viewBox="0 0 23 24">
  <defs/>
  <g fill="#000" fill-rule="nonzero">
    <path d="M8.452.492A11.88 11.88 0 0110.99.013a.676.676 0 01.452.107.681.681 0 01.173.943A10.629 10.629 0 009.7 6.724c-.08 1.954.372 3.96 1.422 5.781a10.526 10.526 0 004.292 4.106 10.582 10.582 0 005.847 1.183.743.743 0 01.439.106.694.694 0 01.186.944 11.066 11.066 0 01-1.688 1.98 13.025 13.025 0 01-2.18 1.555 11.932 11.932 0 01-9.102 1.209 11.94 11.94 0 01-7.296-5.595v-.013A11.932 11.932 0 01.412 8.877a11.94 11.94 0 015.595-7.296h.013A12.312 12.312 0 018.452.491z"/>
    <path d="M16.678 8.372l.518 1.688 1.674.505a.34.34 0 010 .65l-1.674.52-.518 1.674a.336.336 0 01-.412.226c-.12-.04-.2-.12-.226-.226l-.518-1.675-1.675-.518a.34.34 0 01-.226-.425.38.38 0 01.226-.226l1.675-.505.518-1.688a.344.344 0 01.425-.226c.106.04.186.12.213.226zM20.226 1.063l.571 1.847 1.848.572c.199.053.305.266.239.465a.335.335 0 01-.24.239l-1.847.571-.571 1.848a.38.38 0 01-.465.252.398.398 0 01-.253-.252l-.558-1.848-1.86-.571a.358.358 0 01-.24-.465.359.359 0 01.24-.24l1.86-.57.558-1.848c.067-.2.28-.306.465-.252.12.04.213.133.253.252z"/>
  </g>
</svg>
